<?xml version="1.0" encoding="UTF-8"?><svg id="Layer_1" xmlns="http://www.w3.org/2000/svg" viewBox="0 0 1080 1920"><defs><style>.cls-1{fill:#2e391b;}.cls-1,.cls-2,.cls-3,.cls-4{stroke-width:0px;}.cls-2{fill:#2e391e;}.cls-3{fill:#6c7a4c;}.cls-4{fill:#fffbeb;}</style></defs><path class="cls-1" d="m995.42,823.45c0-2-1.62-3.62-3.62-3.62h-33.7c-.54,0-1.07.15-1.53.43l-.09.05c-1.12.67-1.8,1.88-1.8,3.18v59.11c0,2.23-.73,4.43-2.21,6.1-1.8,2.04-4.28,3.07-6.77,3.07-1.36,0-2.72-.31-3.98-.93-8.12-4.01-17.23-6.05-27.08-6.05-12.26,0-23.15,3.14-32.38,9.32-9.08,6.08-16.1,14.79-20.88,25.89-1.43,3.32-4.68,5.43-8.24,5.43-.23,0-.46,0-.69-.03-3.96-.31-7.24-3.29-8.11-7.17-1.81-8.09-4.92-14.81-9.24-19.99-7.69-9.23-18.68-13.71-33.61-13.71-12.52,0-23.56,3.06-32.81,9.09-1.47.96-3.18,1.46-4.9,1.46-.68,0-1.36-.08-2.03-.23-2.39-.56-4.45-2.07-5.7-4.18-.64-1.09-1.83-1.74-3.09-1.74h-27.21c-.41,0-.81.07-1.19.2l-.14.05c-1.36.47-2.26,1.75-2.26,3.19v6.31h0c0,3.49-2.83,6.31-6.31,6.31h-33.03c-1.14,0-2.2.6-2.78,1.59l-.06.11c-.2.35-.35.73-.43,1.14,0,0-.07.37-.08.4-2.59,12.85-12.8,26.58-33.65,26.58-18.73,0-32.38-11.39-36.58-30.5-.37-1.68-.36-3.45.21-5.08,1.31-3.75,4.77-6.07,8.5-6.07h53.63v-.09h37.96c.91-.02,1.78-.33,2.49-.9h.01c.85-.7,1.33-1.71,1.33-2.8v-.49c-.02-2.34-.12-4.63-.31-6.89-3.31-33.28-24.53-54.37-52.41-60.37-6.25-1.68-10.85-7.37-10.85-14.15,0-4.65,2.17-8.78,5.54-11.47,5.61-3.8,10.5-8.43,14.6-13.88,1.72-2.28,4.39-3.57,7.17-3.57,1.39,0,2.8.32,4.14,1,2.62,1.34,4.35,3.96,4.77,6.87.62,4.23,1.55,8.27,2.75,12.12,8.82,26.94,32.28,46.09,67.3,46.09.25,0,.5,0,.74,0v.07c37.03-.15,63.64-21.8,69.47-56.59.6-3.56,3.27-6.42,6.78-7.25.69-.16,1.38-.24,2.07-.24,2.82,0,5.53,1.33,7.25,3.68,10.24,14.01,25.17,21.41,43.17,21.41,10.82,0,20.65-2.67,29.22-7.94.32-.2.64-.4.96-.6,1.47-.95,3.16-1.43,4.87-1.43,2.41,0,4.86.97,6.73,3.01.71.77,1.22,1.7,1.62,2.67.43,1.03,1.55,2.22,3.32,2.22h27.4c.54,0,1.07-.15,1.53-.43l.08-.05c1.12-.67,1.8-1.88,1.8-3.19l-6.33-57.74,12.67-138.26c0-1.99-1.62-3.61-3.61-3.61h-33.51c-2,0-3.62,1.62-3.62,3.62v59.14c0,2.24-.73,4.45-2.21,6.12-1.8,2.03-4.28,3.06-6.76,3.06-1.36,0-2.72-.31-3.98-.93-8.12-4.01-17.23-6.05-27.08-6.05-4.03,0-7.98.35-11.73,1.04-.54.1-1.09.15-1.62.15-3.67,0-7.1-2.26-8.44-5.93-1.11-3.03-.37-6.41,1.66-8.92,6.82-8.45,11.42-18.59,13.32-29.35l.1-.54c.19-1.05-.1-2.12-.78-2.93-.09-.11-.19-.22-.3-.31h0c-.4-.39-.94-.6-1.49-.6h-29.06s-.01.01-.02.02c-.18.48-.39.94-.66,1.39-.21.35-.35.73-.43,1.14,0,0-.07.38-.08.41-.87,4.31-2.95,10.61-7.92,16.12-4.3,4.77-12.25,10.46-25.73,10.46-18.72,0-32.38-11.39-36.58-30.49-.37-1.68-.36-3.45.21-5.08,1.31-3.76,4.77-6.08,8.5-6.08h54.28c.48,0,.96.04,1.42.12,0,0,0,0,0,0h35.47c.93,0,1.83-.32,2.56-.91h.01c.85-.7,1.33-1.71,1.33-2.8v-.49c-.13-20.24-6.77-37.56-19.2-50.08-12.44-12.54-29.58-19.17-49.56-19.17s-37.15,7.11-49.57,20.02c-3.56,3.7-6.7,7.9-9.34,12.47-1.63,2.83-4.62,4.49-7.77,4.49-1.43,0-2.9-.34-4.28-1.08-2.88-1.54-4.59-4.61-4.7-7.87-.53-15.33-4.27-27.27-11.11-35.49-7.69-9.23-18.68-13.71-33.61-13.71-11.84,0-22.37,2.74-31.3,8.15-1.43.86-3.04,1.3-4.65,1.3-2.25,0-4.5-.84-6.26-2.54-1.8-1.73-2.72-4.17-2.72-6.67v-60.94c0-2-1.62-3.62-3.62-3.62h-33.5c-2,0-3.62,1.62-3.62,3.62l10.83,126.61-4.5,24.88c0,.36-.02.72-.06,1.08-1.12,11.06-19.13,20.22-32.75,20.98-.09,0-.17.01-.26.02-.52.03-1.03.04-1.53.04-5.77,0-9.88-1.63-12.56-4.98-2.83-3.55-4.27-9.27-4.27-17v-50.89c0-4.97,4.03-9,9-9h23.6s2.26,0,2.26,0c2,0,3.62-1.62,3.62-3.62v-19.43c0-2-1.62-3.62-3.62-3.62h-25.88c-4.97,0-8.99-4.03-8.99-9v-41.27c0-2-1.62-3.62-3.62-3.62h-1.36c-.76,0-1.49.24-2.11.69,0,0-25.77,18.74-25.8,18.76-.95.67-1.52,1.77-1.52,2.93v22.51c0,4.97-4.03,9-9,9h-14.45c-2,0-3.62,1.62-3.62,3.62v19.43c0,2,1.62,3.62,3.62,3.62h14.45c4.97,0,9,4.03,9,9v51.4c0,.61.01,1.2.02,1.8h-.02c0,16.45,4.7,30.53,15.12,39.03.29.28.51.48.65.59,4.86,3.94,11.03,6.35,18.26,7.4.29.04.57.09.86.13.15.02.31.03.46.05,1.7.21,3.46.34,5.29.4.36.01.73.02,1.1.02.25,0,.49.02.74.02.07,0,.13,0,.19,0,.11,0,.21,0,.32,0,3.47,0,6.85-.26,10.08-.77v.02c.62-.13,1.26-.2,1.91-.2,5.08,0,9.2,4.12,9.2,9.2,0,4.1-2.68,7.56-6.38,8.76v.04c-15.63,5.27-27.9,15.34-35.63,29.37-1.59,2.89-4.62,4.65-7.86,4.65-.33,0-.66-.02-.99-.05-3.6-.4-6.62-2.92-7.63-6.41-.17-.58-.48-1.11-.91-1.54-.68-.68-1.58-1.05-2.52-1.05-.24,0-115.4.26-115.42.26-.95,0-1.89.39-2.55,1.07-.67.68-1.05,1.61-1.04,2.57l.27,29.35v.46c.04,1.95,1.65,3.53,3.57,3.53.25,0,70.72-8.45,70.73-8.45,3.81,0,7.3,2.41,8.55,6.24.65,1.98.49,4.14-.23,6.09-3.77,10.24-9.44,18.79-16.86,25.4-11.91,10.61-27.99,15.99-47.8,15.99-21.25,0-38.84-7.51-50.88-21.74-11.12-13.14-17.25-31.91-17.25-52.84s6.69-40.4,19.34-53.74c12.78-13.47,30.63-20.59,51.63-20.59,15.59,0,29.57,3.54,40.42,10.25,10.83,6.69,18.22,16.08,21.97,27.89l.12.36c.48,1.49,1.87,2.5,3.44,2.5h29.18c.8,0,1.61-.22,2.24-.71,1.19-.92,1.67-2.37,1.33-3.75l-.14-.56c-.7-2.83-1.54-5.62-2.51-8.34-5.52-14.96-16.48-27.43-18.03-29.14-4.08-4.23-8.64-8.07-13.64-11.46-17.22-11.66-39.29-17.82-63.85-17.82-31.54,0-58.51,9.9-77.99,28.63-19.77,19-30.22,45.63-30.22,77.01,0,29.04,9.45,55.36,26.62,74.12,10.84,11.85,24.25,20.41,39.86,25.46,3.89,1.26,6.67,4.87,6.51,8.96-.19,4.9-4.2,8.65-8.97,8.65h-15.72c-2,0-3.62,1.62-3.62,3.62l6.33,138.24v57.8c0,2,1.62,3.62,3.62,3.62h59.73c25.6,0,45.81-5.05,60.07-15,6.35-4.43,11.41-9.8,15.05-15.97,1.64-2.78,4.61-4.41,7.73-4.41,2.39,0,4.88.96,6.89,3.08,1.39,1.46,2.08,3.44,2.08,5.45v23.23c0,2,1.62,3.61,3.62,3.61h33.5c2,0,3.62-1.62,3.62-3.62l-6.33-89.53c0-3.62,2.04-7.03,5.37-8.46,1.19-.51,2.41-.75,3.61-.75,3.42,0,6.63,1.97,8.13,5.18,10.95,23.43,33.68,36.87,62.36,36.87,19.14,0,35.7-6,47.88-17.36,1.66-1.55,3.23-3.2,4.71-4.93,2.58-2.83,6.29-4.61,10.42-4.61,7.79,0,14.11,6.32,14.11,14.11l-6.33,69.5c0,1.99,1.61,3.61,3.61,3.61h33.43c.76,0,1.52-.19,2.14-.62,1-.7,1.57-1.79,1.57-2.97v-75.49c0-.46.02-.91.1-1.37,2.31-14.25,13.56-29.63,32.72-29.63,7.82,0,13.35,2.18,16.91,6.65,3.76,4.73,5.59,12.1,5.59,22.55v77.27c0,2,1.62,3.62,3.62,3.62h27.18c2,0,3.62-1.62,3.62-3.62v-19.76c0-3.62,2.03-7.03,5.34-8.48,1.19-.52,2.43-.77,3.64-.77,3.32,0,6.44,1.84,8,4.9,9.79,19.21,26.94,29.79,48.3,29.79,10.82,0,20.65-2.67,29.21-7.93.32-.2.65-.4.97-.61,1.47-.95,3.16-1.43,4.87-1.43.92,0,1.84.14,2.73.43,2.56.82,4.61,2.73,5.61,5.22.42,1.04,1.54,2.26,3.34,2.26h27.19c2,0,3.62-1.62,3.62-3.62l-6.33-57.81,12.67-138.23Zm-121.2-123.21c5.52-6.06,12.92-9.27,21.4-9.27,12.54,0,23.8,6.74,31.68,18.97.92,1.43,1.39,3.1,1.39,4.8v17.29c0,13.21-3.09,25.13-8.7,33.55-5.96,8.96-14.66,13.69-25.15,13.69-9.67,0-17.32-3.66-22.74-10.88-5.58-7.43-8.53-18.49-8.53-31.98,0-16.25,3.58-28.42,10.64-36.18Zm-75.06-137.39c4.53-1.94,9.66-2.92,15.26-2.92s10.83.98,15.39,2.9c3.51,1.48,5.89,4.93,5.72,8.74-.22,4.91-4.23,8.61-8.97,8.61h-24.11c-4.73,0-8.74-3.69-8.97-8.59-.18-3.79,2.19-7.25,5.68-8.74Zm-149.2,284.73c.12.01.25.03.37.04.49.06.97.13,1.45.2.17.03.34.06.51.09.43.07.87.15,1.29.24.22.04.43.09.65.14.38.09.76.17,1.13.27.27.07.53.15.8.22.32.09.64.18.95.28.34.11.68.23,1.01.34.24.08.47.16.71.24.44.16.87.33,1.29.51,3.75,1.57,6.2,5.38,5.72,9.42-.53,4.58-4.4,7.95-8.92,7.95h-23.88c-3.68,0-7.12-2.12-8.52-5.52-1.9-4.63.28-9.73,4.66-11.67,4.61-2.03,9.85-3.07,15.59-3.07.53,0,1.05.02,1.57.04.6.02,1.19.05,1.78.1.07,0,.14,0,.21.01.54.04,1.08.09,1.61.15Zm106.47-31.09c-23.97,0-37.71-15.81-37.71-43.38s13.75-43.13,37.71-43.13c11.26,0,37.46,4.2,37.46,43.13,0,27.57-13.65,43.38-37.46,43.38Zm-129.22-159.7c.96-4.11,4.79-6.92,9.01-6.92h14.99c.76,0,1.51-.19,2.14-.61,1.01-.7,1.58-1.79,1.58-2.98l-6.34-75.49c0-.46.03-.91.1-1.36,2.31-14.25,13.56-29.64,32.72-29.64,7.82,0,13.35,2.18,16.91,6.65,3.76,4.73,5.59,12.1,5.59,22.55v77.27c0,2,1.62,3.62,3.62,3.62h27.19c1.78,0,3.3-1.32,3.55-3.07.54-3.79,3.43-6.82,7.19-7.54.57-.11,1.14-.16,1.7-.16,3.16,0,6.15,1.68,7.77,4.49,11.83,20.53,33.05,31.84,59.75,31.84,6.63,0,13.02-.72,18.99-2.15.7-.17,1.4-.25,2.09-.25,3.51,0,6.83,2.06,8.29,5.52,1.27,3,.67,6.45-1.27,9.07-6.96,9.4-11.55,21.57-13.3,35.24-.38,2.99-2.12,5.7-4.8,7.07-1.33.68-2.74,1-4.13,1-2.76,0-5.42-1.27-7.14-3.54-12.59-16.53-32.82-25.63-56.97-25.63s-44.72,9.18-57.35,25.85c-1.72,2.27-4.39,3.56-7.15,3.56-.75,0-1.5-.09-2.25-.29-3.51-.91-6.13-3.83-6.64-7.42-4.12-28.71-22.08-49.09-49.28-55.92-4.71-1.18-7.68-5.92-6.55-10.77Zm-14.35,36.51c11.26,0,37.46,4.2,37.46,43.13,0,27.57-13.65,43.38-37.46,43.38s-37.71-15.81-37.71-43.38,13.74-43.13,37.71-43.13Zm-201.16,164.27c0-4.97,4.03-9,9-9h18.65c13.36,0,23.44,2.12,29.95,6.31,6.09,3.91,9.05,9.63,9.05,17.48,0,8.97-3.55,16-10.56,20.89-7.41,5.18-18.19,7.8-32.06,7.8h-15.04c-4.97,0-9-4.03-9-9v-34.48Zm28.43,136.81h-19.43c-4.97,0-9-4.03-9-9v-47.37c0-4.97,4.03-9,9-9h16.08c16.3,0,28.73,2.96,36.97,8.81,7.85,5.57,11.83,13.91,11.83,24.78,0,21.09-15.29,31.79-45.45,31.79Zm154.58-154.52c-4.87,5.06-8.92,10.99-12.02,17.62-1.5,3.2-4.7,5.17-8.12,5.17-1.22,0-2.46-.25-3.67-.78-3.3-1.45-5.31-4.84-5.31-8.44v-29.97c0-2-1.62-3.62-3.62-3.62h-32.81c-1.69,0-3.29.92-4,2.45-.19.4-.3.79-.3,1.15l6.33,109.12c0,3.6-2,6.99-5.28,8.46-1.21.54-2.46.79-3.69.79-3.1,0-6.06-1.62-7.71-4.38-2.34-3.92-5.27-7.51-8.71-10.66-2.83-2.59-6.03-4.92-9.5-6.93-1.78-1.03-3.22-2.62-3.96-4.54-1.5-3.92-.15-8.15,3.03-10.49,11.15-8.25,17.33-20,17.88-33.99.05-1.66,0-3.59-.02-4.43-.64-14.7-7.18-26.23-19.46-34.26-8.67-5.67-20.12-9.42-34.03-11.16-3.9-.49-7.23-3.3-8-7.16-.93-4.67,1.89-9.16,6.36-10.42,12.4-3.5,23.3-9.15,32.4-16.8,1.65-1.38,3.7-2.1,5.77-2.1,1.94,0,3.9.63,5.57,1.93,2.12,1.66,3.31,4.25,3.41,6.94l.25,6.8c.07,1.94,1.67,3.49,3.61,3.49h24.26c1.81,0,3.49-1.18,3.92-2.94.06-.23.09-.45.09-.66l-3.17-20.18c0-3.59,2-6.98,5.29-8.44,1.21-.54,2.46-.79,3.69-.79,3.17,0,6.18,1.69,7.81,4.55,10.71,18.88,29.36,30.2,53.04,32.43v.03c5.85.52,10.45,5.43,10.45,11.42,0,3.97-2.02,7.45-5.08,9.51-5.45,3.04-10.38,6.81-14.68,11.29Zm359.99,111.65c0,13.21-3.09,25.13-8.7,33.55-5.96,8.96-14.66,13.69-25.15,13.69-9.67,0-17.32-3.66-22.74-10.88-5.58-7.43-8.53-18.49-8.53-31.98,0-16.25,3.58-28.42,10.64-36.18,5.52-6.06,12.92-9.27,21.4-9.27,12.52,0,23.75,6.71,31.63,18.89.94,1.45,1.44,3.14,1.44,4.87v17.29Z"/><path class="cls-1" d="m395.43,1088.98v-27.5h4.29v6.32c0,.55-.01,1.11-.04,1.7-.03.59-.08,1.18-.16,1.78-.08.6-.16,1.2-.23,1.79-.08.6-.17,1.21-.27,1.83h.7c.39-1.46.88-2.68,1.46-3.69.59-1,1.33-1.75,2.22-2.26.9-.51,1.98-.76,3.26-.76,2.34,0,4.08.81,5.23,2.44,1.14,1.63,1.72,4.06,1.72,7.31v11.04h-4.29v-10.49c0-2.29-.34-3.97-1.03-5.03-.69-1.07-1.72-1.6-3.1-1.6-1.15,0-2.1.34-2.87,1.01-.77.68-1.37,1.59-1.81,2.73-.44,1.14-.73,2.45-.86,3.9v9.48h-4.21Z"/><path class="cls-1" d="m427.3,1089.49c-1.61,0-3.04-.24-4.29-.72-1.25-.48-2.3-1.17-3.16-2.07s-1.51-1.98-1.95-3.24c-.44-1.26-.66-2.69-.66-4.27s.22-3.05.66-4.39c.44-1.34,1.07-2.5,1.89-3.49s1.83-1.76,3.04-2.3,2.58-.82,4.12-.82c1.43,0,2.71.23,3.84.7,1.13.47,2.09,1.18,2.87,2.13.78.95,1.37,2.13,1.76,3.55.39,1.42.53,3.08.43,4.97l-15.88.12v-2.65l13.38-.12-1.48,1.64c.16-1.56.03-2.85-.39-3.86-.42-1.01-1.01-1.77-1.79-2.26s-1.68-.74-2.69-.74c-1.15,0-2.14.29-2.98.88-.85.59-1.5,1.44-1.97,2.56s-.7,2.46-.7,4.02c0,2.34.52,4.1,1.56,5.29,1.04,1.18,2.52,1.78,4.45,1.78.81,0,1.5-.1,2.07-.29.57-.2,1.05-.45,1.44-.78.39-.32.71-.71.96-1.17.25-.46.45-.93.6-1.42l3.71.86c-.23.96-.59,1.81-1.07,2.55-.48.74-1.09,1.38-1.81,1.91-.73.53-1.58.94-2.56,1.23-.98.29-2.1.43-3.37.43Z"/><path class="cls-1" d="m444.62,1089.49c-1.12,0-2.12-.21-3-.64-.88-.43-1.58-1.07-2.09-1.93-.51-.86-.76-1.92-.76-3.2,0-1.01.19-1.89.57-2.63.38-.74.95-1.37,1.72-1.87.77-.51,1.75-.92,2.95-1.25,1.2-.33,2.61-.6,4.25-.84.91-.13,1.66-.26,2.24-.39.59-.13,1.01-.34,1.29-.62s.41-.72.41-1.29c0-.88-.31-1.64-.92-2.28-.61-.64-1.59-.96-2.95-.96-.75,0-1.5.13-2.24.39-.74.26-1.38.68-1.91,1.27-.53.59-.89,1.37-1.07,2.36l-3.82-1.21c.23-.99.61-1.87,1.13-2.63.52-.77,1.17-1.42,1.95-1.95.78-.53,1.68-.94,2.71-1.21,1.03-.27,2.15-.41,3.37-.41,1.79,0,3.28.3,4.45.9,1.17.6,2.05,1.52,2.63,2.75.58,1.24.88,2.82.88,4.74v4.13c0,.86.02,1.76.06,2.71s.09,1.9.16,2.85c.06.95.15,1.85.25,2.71h-3.86c-.08-.78-.15-1.59-.21-2.42-.06-.83-.12-1.68-.18-2.54h-.59c-.36.99-.88,1.9-1.54,2.73-.66.83-1.48,1.5-2.46,1.99-.98.49-2.11.74-3.41.74Zm1.48-3.28c.55,0,1.1-.09,1.66-.27.56-.18,1.12-.46,1.68-.84.56-.38,1.08-.86,1.56-1.46.48-.6.9-1.31,1.27-2.15l-.04-3.67,1.01.2c-.44.39-.99.69-1.66.9-.66.21-1.38.37-2.17.49-.78.12-1.55.25-2.32.39-.77.14-1.47.34-2.11.59s-1.14.59-1.52,1.03c-.38.44-.57,1.05-.57,1.83,0,.96.3,1.7.9,2.2.6.51,1.37.76,2.3.76Z"/><path class="cls-1" d="m461.28,1088.98v-27.5h4.17v27.5h-4.17Z"/><path class="cls-1" d="m477.35,1089.41c-2,0-3.49-.55-4.47-1.64-.98-1.09-1.46-2.77-1.46-5.03v-10.57h-3l.08-3.47h1.95c.68,0,1.18-.11,1.52-.33.34-.22.55-.62.62-1.19l.39-3h2.54v4.53h5.58v3.55h-5.58v10.38c0,1.01.23,1.74.7,2.18s1.16.66,2.07.66c.49,0,1-.06,1.5-.18.51-.12.99-.34,1.46-.68v4.1c-.78.26-1.5.44-2.15.55-.65.1-1.24.16-1.76.16Z"/><path class="cls-1" d="m484.68,1088.98v-27.5h4.29v6.32c0,.55-.01,1.11-.04,1.7-.03.59-.08,1.18-.16,1.78-.08.6-.16,1.2-.23,1.79-.08.6-.17,1.21-.27,1.83h.7c.39-1.46.88-2.68,1.46-3.69.59-1,1.33-1.75,2.22-2.26.9-.51,1.98-.76,3.26-.76,2.34,0,4.08.81,5.23,2.44,1.14,1.63,1.72,4.06,1.72,7.31v11.04h-4.29v-10.49c0-2.29-.34-3.97-1.03-5.03-.69-1.07-1.72-1.6-3.1-1.6-1.15,0-2.1.34-2.87,1.01-.77.68-1.37,1.59-1.81,2.73-.44,1.14-.73,2.45-.86,3.9v9.48h-4.21Z"/><path class="cls-1" d="m514.8,1095.85c-1.04,0-2.09-.11-3.14-.33-1.05-.22-2.02-.56-2.91-1.01-.88-.46-1.63-1.05-2.22-1.77l1.72-3.36c.68.88,1.59,1.55,2.73,2.01,1.14.45,2.35.68,3.63.68,1.46,0,2.66-.31,3.61-.92.95-.61,1.67-1.55,2.17-2.83.49-1.27.75-2.87.78-4.8l.35-3.9h-.74c-.29,1.85-.74,3.33-1.35,4.45-.61,1.12-1.36,1.92-2.24,2.42-.88.5-1.92.74-3.12.74-1.48,0-2.72-.37-3.73-1.11-1-.74-1.76-1.85-2.26-3.32-.51-1.47-.76-3.27-.76-5.4v-8.7h4.21v7.76c0,2.47.33,4.28.99,5.42s1.66,1.72,2.98,1.72c.73,0,1.38-.18,1.95-.55.57-.36,1.07-.9,1.5-1.62.43-.71.77-1.61,1.01-2.67.25-1.07.4-2.3.45-3.71v-6.36h4.25v15.02c0,1.61-.13,3.06-.39,4.35-.26,1.29-.66,2.42-1.19,3.39-.53.97-1.19,1.79-1.97,2.46s-1.7,1.15-2.75,1.46c-1.05.31-2.24.47-3.57.47Z"/><path class="cls-1" d="m538.48,1088.98v-20.29h3.67l-.23,6.32h.66c.36-1.56.85-2.84,1.46-3.84.61-1,1.39-1.75,2.34-2.24.95-.49,2.06-.74,3.33-.74,2.26,0,3.99.81,5.17,2.42,1.18,1.61,1.78,4.07,1.78,7.37v11h-4.29v-10.57c0-2.26-.34-3.92-1.01-4.97-.68-1.05-1.69-1.58-3.04-1.58-1.17,0-2.17.37-2.98,1.11-.82.74-1.45,1.71-1.89,2.91-.44,1.2-.69,2.5-.74,3.9v9.21h-4.21Z"/><path class="cls-1" d="m570.35,1089.49c-1.61,0-3.04-.24-4.29-.72-1.25-.48-2.3-1.17-3.16-2.07s-1.51-1.98-1.95-3.24c-.44-1.26-.66-2.69-.66-4.27s.22-3.05.66-4.39c.44-1.34,1.07-2.5,1.89-3.49s1.83-1.76,3.04-2.3,2.58-.82,4.12-.82c1.43,0,2.71.23,3.84.7,1.13.47,2.09,1.18,2.87,2.13.78.95,1.37,2.13,1.76,3.55.39,1.42.53,3.08.43,4.97l-15.88.12v-2.65l13.38-.12-1.48,1.64c.16-1.56.03-2.85-.39-3.86-.42-1.01-1.01-1.77-1.79-2.26s-1.68-.74-2.69-.74c-1.15,0-2.14.29-2.98.88-.85.59-1.5,1.44-1.97,2.56s-.7,2.46-.7,4.02c0,2.34.52,4.1,1.56,5.29,1.04,1.18,2.52,1.78,4.45,1.78.81,0,1.5-.1,2.07-.29.57-.2,1.05-.45,1.44-.78.39-.32.71-.71.96-1.17.25-.46.45-.93.6-1.42l3.71.86c-.23.96-.59,1.81-1.07,2.55-.48.74-1.09,1.38-1.81,1.91-.73.53-1.58.94-2.56,1.23-.98.29-2.1.43-3.37.43Z"/><path class="cls-1" d="m587.39,1088.98l-7.1-20.25h4.72l5.07,16.77h.58l5.11-16.77h4.56l-7.1,20.25h-5.85Z"/><path class="cls-1" d="m611.62,1089.49c-1.61,0-3.04-.24-4.29-.72-1.25-.48-2.3-1.17-3.16-2.07s-1.51-1.98-1.95-3.24c-.44-1.26-.66-2.69-.66-4.27s.22-3.05.66-4.39c.44-1.34,1.07-2.5,1.89-3.49s1.83-1.76,3.04-2.3,2.58-.82,4.12-.82c1.43,0,2.71.23,3.84.7,1.13.47,2.09,1.18,2.87,2.13.78.95,1.37,2.13,1.76,3.55.39,1.42.53,3.08.43,4.97l-15.88.12v-2.65l13.38-.12-1.48,1.64c.16-1.56.03-2.85-.39-3.86-.42-1.01-1.01-1.77-1.79-2.26s-1.68-.74-2.69-.74c-1.14,0-2.14.29-2.98.88-.84.59-1.5,1.44-1.97,2.56-.47,1.12-.7,2.46-.7,4.02,0,2.34.52,4.1,1.56,5.29,1.04,1.18,2.52,1.78,4.45,1.78.81,0,1.5-.1,2.07-.29.57-.2,1.05-.45,1.44-.78.39-.32.71-.71.96-1.17.25-.46.45-.93.6-1.42l3.71.86c-.23.96-.59,1.81-1.07,2.55s-1.09,1.38-1.81,1.91c-.73.53-1.58.94-2.56,1.23-.97.29-2.1.43-3.37.43Z"/><path class="cls-1" d="m624.14,1088.98v-20.29h3.67l-.2,7.02h.66c.23-1.59.6-2.94,1.09-4.06.49-1.12,1.17-1.97,2.03-2.56s1.92-.88,3.2-.88c.26,0,.55.01.86.04.31.03.66.1,1.05.23l-.2,4.45c-.39-.16-.79-.27-1.21-.33-.42-.06-.79-.1-1.13-.1-1.04,0-1.92.29-2.65.88s-1.33,1.39-1.81,2.42c-.48,1.03-.85,2.22-1.11,3.57v9.6h-4.25Z"/><path class="cls-1" d="m654.92,1089.41c-2,0-3.49-.55-4.47-1.64-.98-1.09-1.46-2.77-1.46-5.03v-10.57h-3l.08-3.47h1.95c.68,0,1.18-.11,1.52-.33.34-.22.55-.62.62-1.19l.39-3h2.54v4.53h5.58v3.55h-5.58v10.38c0,1.01.23,1.74.7,2.18.47.44,1.16.66,2.07.66.49,0,.99-.06,1.5-.18.51-.12.99-.34,1.46-.68v4.1c-.78.26-1.5.44-2.15.55-.65.1-1.24.16-1.76.16Z"/><path class="cls-1" d="m666.94,1089.49c-1.12,0-2.12-.21-3-.64-.88-.43-1.58-1.07-2.09-1.93-.51-.86-.76-1.92-.76-3.2,0-1.01.19-1.89.57-2.63.38-.74.95-1.37,1.72-1.87.77-.51,1.75-.92,2.95-1.25,1.2-.33,2.61-.6,4.25-.84.91-.13,1.66-.26,2.24-.39.58-.13,1.01-.34,1.29-.62s.41-.72.41-1.29c0-.88-.31-1.64-.92-2.28-.61-.64-1.59-.96-2.95-.96-.75,0-1.5.13-2.24.39-.74.26-1.38.68-1.91,1.27-.53.59-.89,1.37-1.07,2.36l-3.82-1.21c.23-.99.61-1.87,1.13-2.63.52-.77,1.17-1.42,1.95-1.95.78-.53,1.68-.94,2.71-1.21,1.03-.27,2.15-.41,3.37-.41,1.79,0,3.28.3,4.45.9,1.17.6,2.05,1.52,2.63,2.75.58,1.24.88,2.82.88,4.74v4.13c0,.86.02,1.76.06,2.71s.09,1.9.16,2.85c.07.95.15,1.85.25,2.71h-3.86c-.08-.78-.15-1.59-.21-2.42-.07-.83-.12-1.68-.18-2.54h-.58c-.37.99-.88,1.9-1.54,2.73-.66.83-1.48,1.5-2.46,1.99-.98.49-2.11.74-3.41.74Zm1.48-3.28c.55,0,1.1-.09,1.66-.27.56-.18,1.12-.46,1.68-.84.56-.38,1.08-.86,1.56-1.46.48-.6.9-1.31,1.27-2.15l-.04-3.67,1.01.2c-.44.39-1,.69-1.66.9s-1.38.37-2.17.49-1.55.25-2.32.39c-.77.14-1.47.34-2.11.59-.64.25-1.14.59-1.52,1.03-.38.44-.57,1.05-.57,1.83,0,.96.3,1.7.9,2.2.6.51,1.37.76,2.3.76Z"/><path class="cls-1" d="m691.28,1089.49c-1.41,0-2.65-.14-3.75-.43-1.09-.29-2.02-.7-2.79-1.23-.77-.53-1.36-1.18-1.77-1.93-.42-.75-.66-1.57-.74-2.46l3.43-1.13c0,.75.23,1.43.7,2.03.47.6,1.14,1.06,2.01,1.38.87.33,1.92.49,3.14.49,1.43,0,2.54-.23,3.32-.7.78-.47,1.17-1.12,1.17-1.95,0-.62-.21-1.12-.64-1.48-.43-.36-1.04-.66-1.83-.9-.79-.23-1.72-.46-2.79-.66-.96-.21-1.92-.45-2.87-.72-.95-.27-1.82-.63-2.61-1.07-.79-.44-1.43-1.02-1.91-1.74-.48-.71-.72-1.62-.72-2.71,0-1.25.33-2.32.98-3.22.65-.9,1.59-1.6,2.83-2.11,1.24-.51,2.71-.76,4.43-.76s3.1.25,4.31.74c1.21.49,2.18,1.18,2.91,2.07.73.88,1.17,1.93,1.33,3.12l-3.59,1.05c-.05-.81-.29-1.48-.72-2.03-.43-.55-1.01-.96-1.74-1.23-.73-.27-1.59-.41-2.58-.41-1.3,0-2.32.23-3.06.7-.74.47-1.11,1.11-1.11,1.91,0,.62.23,1.12.68,1.5.46.38,1.08.68,1.87.9.79.22,1.7.44,2.71.64,1.04.21,2.04.44,3,.7.96.26,1.83.6,2.59,1.03.77.43,1.38,1,1.83,1.72.45.72.68,1.62.68,2.71,0,1.33-.36,2.45-1.07,3.37-.72.92-1.72,1.62-3.02,2.09-1.3.47-2.83.7-4.6.7Z"/><path class="cls-1" d="m710.35,1089.41c-2,0-3.49-.55-4.47-1.64-.98-1.09-1.46-2.77-1.46-5.03v-10.57h-3l.08-3.47h1.95c.68,0,1.18-.11,1.52-.33.34-.22.55-.62.62-1.19l.39-3h2.54v4.53h5.58v3.55h-5.58v10.38c0,1.01.23,1.74.7,2.18.47.44,1.16.66,2.07.66.49,0,.99-.06,1.5-.18.51-.12.99-.34,1.46-.68v4.1c-.78.26-1.5.44-2.15.55-.65.1-1.24.16-1.76.16Z"/><path class="cls-1" d="m726.43,1089.49c-1.61,0-3.04-.24-4.29-.72-1.25-.48-2.3-1.17-3.16-2.07s-1.51-1.98-1.95-3.24c-.44-1.26-.66-2.69-.66-4.27s.22-3.05.66-4.39c.44-1.34,1.07-2.5,1.89-3.49s1.83-1.76,3.04-2.3,2.58-.82,4.12-.82c1.43,0,2.71.23,3.84.7,1.13.47,2.09,1.18,2.87,2.13.78.95,1.37,2.13,1.76,3.55.39,1.42.53,3.08.43,4.97l-15.88.12v-2.65l13.38-.12-1.48,1.64c.16-1.56.03-2.85-.39-3.86-.42-1.01-1.01-1.77-1.79-2.26s-1.68-.74-2.69-.74c-1.14,0-2.14.29-2.98.88-.84.59-1.5,1.44-1.97,2.56s-.7,2.46-.7,4.02c0,2.34.52,4.1,1.56,5.29,1.04,1.18,2.52,1.78,4.45,1.78.81,0,1.5-.1,2.07-.29.57-.2,1.05-.45,1.44-.78.39-.32.71-.71.96-1.17.25-.46.45-.93.6-1.42l3.71.86c-.23.96-.59,1.81-1.07,2.55s-1.09,1.38-1.81,1.91c-.73.53-1.58.94-2.56,1.23-.97.29-2.1.43-3.37.43Z"/><path class="cls-1" d="m746.36,1089.49c-1.72,0-3.2-.45-4.45-1.35-1.25-.9-2.2-2.15-2.85-3.75-.65-1.6-.98-3.45-.98-5.56s.31-3.88.92-5.48,1.52-2.85,2.73-3.76c1.21-.91,2.7-1.37,4.47-1.37,1.41,0,2.56.28,3.47.84.91.56,1.64,1.32,2.2,2.28.56.96.98,2.03,1.27,3.2h.78c-.13-.75-.26-1.54-.39-2.36s-.23-1.61-.31-2.38c-.08-.77-.12-1.45-.12-2.05v-6.28h4.29v27.5h-3.71l.16-5.62h-.7c-.31,1.27-.75,2.37-1.33,3.28-.57.91-1.31,1.61-2.2,2.11-.9.49-1.98.74-3.26.74Zm1.17-3.59c.91,0,1.72-.21,2.42-.62s1.29-.96,1.76-1.64c.47-.68.83-1.41,1.07-2.2.25-.79.37-1.54.37-2.24v-.55c0-.52-.07-1.09-.21-1.7-.14-.61-.36-1.22-.66-1.83s-.67-1.16-1.11-1.66c-.44-.49-.97-.89-1.58-1.19-.61-.3-1.29-.45-2.05-.45-1.09,0-2.01.31-2.75.92-.74.61-1.31,1.45-1.7,2.52-.39,1.07-.59,2.29-.59,3.67s.2,2.63.61,3.69c.4,1.05.98,1.87,1.74,2.44.75.57,1.65.86,2.69.86Z"/><path class="cls-1" d="m778.97,1089.49c-1.41,0-2.65-.14-3.75-.43-1.09-.29-2.02-.7-2.79-1.23-.77-.53-1.36-1.18-1.77-1.93-.42-.75-.66-1.57-.74-2.46l3.43-1.13c0,.75.23,1.43.7,2.03.47.6,1.14,1.06,2.01,1.38.87.33,1.92.49,3.14.49,1.43,0,2.54-.23,3.32-.7.78-.47,1.17-1.12,1.17-1.95,0-.62-.21-1.12-.64-1.48-.43-.36-1.04-.66-1.83-.9-.79-.23-1.72-.46-2.79-.66-.96-.21-1.92-.45-2.87-.72-.95-.27-1.82-.63-2.61-1.07-.79-.44-1.43-1.02-1.91-1.74-.48-.71-.72-1.62-.72-2.71,0-1.25.33-2.32.98-3.22.65-.9,1.59-1.6,2.83-2.11,1.24-.51,2.71-.76,4.43-.76s3.1.25,4.31.74c1.21.49,2.18,1.18,2.91,2.07.73.88,1.17,1.93,1.33,3.12l-3.59,1.05c-.05-.81-.29-1.48-.72-2.03-.43-.55-1.01-.96-1.74-1.23-.73-.27-1.59-.41-2.58-.41-1.3,0-2.32.23-3.06.7-.74.47-1.11,1.11-1.11,1.91,0,.62.23,1.12.68,1.5.46.38,1.08.68,1.87.9.79.22,1.7.44,2.71.64,1.04.21,2.04.44,3,.7.96.26,1.83.6,2.59,1.03.77.43,1.38,1,1.83,1.72.45.72.68,1.62.68,2.71,0,1.33-.36,2.45-1.07,3.37-.72.92-1.72,1.62-3.02,2.09-1.3.47-2.83.7-4.6.7Z"/><path class="cls-1" d="m800.35,1089.49c-1.95,0-3.68-.42-5.19-1.25-1.51-.83-2.69-2.04-3.53-3.63-.85-1.59-1.27-3.54-1.27-5.85s.44-4.33,1.33-5.89c.88-1.56,2.07-2.73,3.57-3.51,1.5-.78,3.18-1.17,5.05-1.17s3.64.4,5.15,1.21c1.51.81,2.7,2,3.57,3.59s1.31,3.56,1.31,5.93-.44,4.3-1.31,5.87-2.06,2.75-3.57,3.53c-1.51.78-3.21,1.17-5.11,1.17Zm.16-3.35c1.17,0,2.17-.27,3-.82.83-.55,1.47-1.35,1.91-2.42.44-1.07.66-2.34.66-3.82s-.23-2.85-.7-3.96c-.47-1.11-1.14-1.96-2.01-2.56-.87-.6-1.93-.9-3.18-.9-1.12,0-2.1.27-2.95.8-.85.53-1.49,1.33-1.93,2.38-.44,1.05-.66,2.33-.66,3.84,0,2.37.52,4.2,1.56,5.5,1.04,1.3,2.47,1.95,4.29,1.95Z"/><path class="cls-1" d="m830.82,1089.49c-1.41,0-2.65-.14-3.75-.43-1.09-.29-2.02-.7-2.79-1.23-.77-.53-1.36-1.18-1.77-1.93-.42-.75-.66-1.57-.74-2.46l3.43-1.13c0,.75.23,1.43.7,2.03.47.6,1.14,1.06,2.01,1.38.87.33,1.92.49,3.14.49,1.43,0,2.54-.23,3.32-.7.78-.47,1.17-1.12,1.17-1.95,0-.62-.21-1.12-.64-1.48-.43-.36-1.04-.66-1.83-.9-.79-.23-1.72-.46-2.79-.66-.96-.21-1.92-.45-2.87-.72-.95-.27-1.82-.63-2.61-1.07-.79-.44-1.43-1.02-1.91-1.74-.48-.71-.72-1.62-.72-2.71,0-1.25.33-2.32.98-3.22.65-.9,1.59-1.6,2.83-2.11,1.24-.51,2.71-.76,4.43-.76s3.1.25,4.31.74c1.21.49,2.18,1.18,2.91,2.07.73.88,1.17,1.93,1.33,3.12l-3.59,1.05c-.05-.81-.29-1.48-.72-2.03-.43-.55-1.01-.96-1.74-1.23-.73-.27-1.59-.41-2.58-.41-1.3,0-2.32.23-3.06.7-.74.47-1.11,1.11-1.11,1.91,0,.62.23,1.12.68,1.5.46.38,1.08.68,1.87.9.79.22,1.7.44,2.71.64,1.04.21,2.04.44,3,.7.96.26,1.83.6,2.59,1.03.77.43,1.38,1,1.83,1.72.45.72.68,1.62.68,2.71,0,1.33-.36,2.45-1.07,3.37-.72.92-1.72,1.62-3.02,2.09-1.3.47-2.83.7-4.6.7Z"/><path class="cls-1" d="m846.34,1088.98l-5.27-20.29h4.37l3.63,16.77h.66l3.98-16.77h5.3l4.06,16.77h.62l3.59-16.77h4.33l-5.3,20.29h-5.89l-3.86-16.74h-.51l-3.82,16.74h-5.89Z"/><path class="cls-1" d="m883.44,1089.49c-1.61,0-3.04-.24-4.29-.72-1.25-.48-2.3-1.17-3.16-2.07s-1.51-1.98-1.95-3.24c-.44-1.26-.66-2.69-.66-4.27s.22-3.05.66-4.39c.44-1.34,1.07-2.5,1.89-3.49s1.83-1.76,3.04-2.3,2.58-.82,4.12-.82c1.43,0,2.71.23,3.84.7,1.13.47,2.09,1.18,2.87,2.13.78.95,1.37,2.13,1.76,3.55.39,1.42.53,3.08.43,4.97l-15.88.12v-2.65l13.38-.12-1.48,1.64c.16-1.56.03-2.85-.39-3.86-.42-1.01-1.01-1.77-1.79-2.26s-1.68-.74-2.69-.74c-1.14,0-2.14.29-2.98.88-.84.59-1.5,1.44-1.97,2.56s-.7,2.46-.7,4.02c0,2.34.52,4.1,1.56,5.29,1.04,1.18,2.52,1.78,4.45,1.78.81,0,1.5-.1,2.07-.29.57-.2,1.05-.45,1.44-.78.39-.32.71-.71.96-1.17.25-.46.45-.93.6-1.42l3.71.86c-.23.96-.59,1.81-1.07,2.55s-1.09,1.38-1.81,1.91c-.73.53-1.58.94-2.56,1.23-.97.29-2.1.43-3.37.43Z"/><path class="cls-1" d="m905.01,1089.49c-1.61,0-3.04-.24-4.29-.72-1.25-.48-2.3-1.17-3.16-2.07s-1.51-1.98-1.95-3.24c-.44-1.26-.66-2.69-.66-4.27s.22-3.05.66-4.39c.44-1.34,1.07-2.5,1.89-3.49s1.83-1.76,3.04-2.3,2.58-.82,4.12-.82c1.43,0,2.71.23,3.84.7,1.13.47,2.09,1.18,2.87,2.13.78.95,1.37,2.13,1.76,3.55.39,1.42.53,3.08.43,4.97l-15.88.12v-2.65l13.38-.12-1.48,1.64c.16-1.56.03-2.85-.39-3.86-.42-1.01-1.01-1.77-1.79-2.26s-1.68-.74-2.69-.74c-1.14,0-2.14.29-2.98.88-.84.59-1.5,1.44-1.97,2.56s-.7,2.46-.7,4.02c0,2.34.52,4.1,1.56,5.29,1.04,1.18,2.52,1.78,4.45,1.78.81,0,1.5-.1,2.07-.29.57-.2,1.05-.45,1.44-.78.39-.32.71-.71.96-1.17.25-.46.45-.93.6-1.42l3.71.86c-.23.96-.59,1.81-1.07,2.55s-1.09,1.38-1.81,1.91c-.73.53-1.58.94-2.56,1.23-.97.29-2.1.43-3.37.43Z"/><path class="cls-1" d="m924.25,1089.41c-2,0-3.49-.55-4.47-1.64-.98-1.09-1.46-2.77-1.46-5.03v-10.57h-3l.08-3.47h1.95c.68,0,1.18-.11,1.52-.33.34-.22.55-.62.62-1.19l.39-3h2.54v4.53h5.58v3.55h-5.58v10.38c0,1.01.23,1.74.7,2.18.47.44,1.16.66,2.07.66.49,0,.99-.06,1.5-.18.51-.12.99-.34,1.46-.68v4.1c-.78.26-1.5.44-2.15.55-.65.1-1.24.16-1.76.16Z"/><path class="cls-4" d="m381.61,1465.27l-3.23-389.55s3.22-53.37,28.21-97.93c25-44.56,54.67-80.7,41.95-98.86-12.71-18.16-79.71,39.96-99.21,86.3l-35.19-135.17s-8.13-37.65,10.17-25.78c18.3,11.87,72.68,55.32,84.38,62.21,10.24,6.03,26.86,14.67,31.1-5.19,4.24-19.86-81.13-96.86-124.81-107.34-43.67-10.48-41.76,6.09-42.61,28.16-1.45,37.82,22.42,168.65,22.42,168.65l-65.89-303.82s-13.99-57.88-31.38-52.66c-17.38,5.22-14.84,39.97-7.63,64.8,7.21,24.82,52.58,268.64,55.54,294.02,0,0-72.93-234.99-86.5-271.95-13.57-36.96-23.74-50.2-33.92-40.82-10.18,9.38-8.71,30.24-1.76,56.17,6.95,25.93,71.66,278.02,71.66,278.02l-104.86-191.61s-24.25-42-41-26.28c-8.79,8.26,9.82,49.19,9.82,49.19,0,0,79.21,180.84,85.15,202.9l.36,452.15"/><path class="cls-2" d="m379.43,1465.28l-3.22-389.54c.03-.69,3.52-54.54,28.48-99.02,6-10.68,12.16-20.72,18.12-30.44,18.34-29.87,32.82-53.45,23.95-66.1-1.37-1.96-3.72-2.77-7.09-2.39-21.64,2.3-71.88,49.2-88.32,88.28-.36.86-1.25,1.22-2.17,1.34-.93-.08-1.73-.72-1.96-1.63l-35.18-135.16c-.9-4.15-4.91-24.65,2.41-29.7,2.77-1.93,6.5-1.43,11.04,1.52,9.27,6.02,27.49,19.89,45.12,33.31,17.21,13.12,33.48,25.5,39.18,28.86,7.51,4.41,15.9,8.58,21.62,6.12,3.01-1.32,5.12-4.65,6.23-9.89,3.91-18.28-81.04-94.66-123.17-104.77-17.35-4.15-28.41-4.18-33.84-.08-5.36,4.09-5.63,12.32-5.96,22.75l-.12,3.45c-1.43,37.13,22.15,166.87,22.39,168.18.21,1.17-.56,2.3-1.73,2.53-1.08.32-2.29-.5-2.56-1.67l-65.89-303.82c-2.86-11.83-12.7-44.01-23.64-50.27-1.75-1.01-3.39-1.26-4.97-.77-14.44,4.33-13.96,35.22-6.17,62.1,7.33,25.23,52.68,269.18,55.61,294.37.14,1.13-.62,2.15-1.72,2.39-1.02.21-2.2-.39-2.54-1.49-.72-2.35-73.07-235.37-86.44-271.85-9.84-26.78-17.8-40.57-24.35-42.16-1.23-.27-3.24-.42-6.06,2.2-8.41,7.75-8.77,25.41-1.13,53.99,6.88,25.64,71.03,275.52,71.68,278.04.27,1.07-.3,2.17-1.32,2.57-1.04.41-2.18-.03-2.71-.98l-104.86-191.62c-.14-.23-15.48-26.53-29.19-28.54-3.27-.45-5.91.45-8.41,2.81-5.27,4.95,2.86,30.27,10.31,46.69,3.25,7.42,79.37,181.28,85.27,203.23.05.2.08.38.08.57l.36,452.15h-4.36l-.36-451.85c-6.38-22.84-84.19-200.53-84.97-202.33-3.2-7.04-18.75-42.79-9.3-51.65,3.48-3.3,7.52-4.65,12.04-3.94,15.78,2.32,31.67,29.55,32.35,30.71l96.51,176.38c-14.61-56.92-61.51-239.42-67.32-261.1-8.23-30.73-7.46-49.26,2.39-58.35,3.24-2.98,6.61-4.03,10.04-3.22,8.41,2.03,16.61,15.47,27.41,44.9,10.53,28.69,57.34,178.38,77.38,242.67-12.53-72.39-44.54-242.57-50.57-263.39-8.34-28.68-9.04-62.04,9.09-67.48,2.74-.84,5.61-.45,8.41,1.16,14.79,8.49,25.28,51.26,25.71,53.08l47.47,218.85c-4.86-33-8.94-66.7-8.31-83.27l.12-3.42c.35-11.12.66-20.72,7.67-26.08,6.7-5.09,18.25-5.31,37.51-.69,42.64,10.23,131.25,87.27,126.42,109.91-1.43,6.7-4.36,11.06-8.74,12.99-7.48,3.24-17.15-1.38-25.61-6.36-5.91-3.49-22.28-15.95-39.6-29.15-17.56-13.36-35.72-27.19-44.85-33.12-1.63-1.05-4.6-2.68-6.18-1.59-3.64,2.51-2.57,16.18-.65,25.08l33.6,129.13c19.33-39.6,67.18-82.92,89.32-85.28,6.18-.53,9.52,1.94,11.13,4.24,10.5,14.99-4.63,39.66-23.8,70.88-5.94,9.67-12.08,19.68-18.03,30.29-24.47,43.57-27.91,96.48-27.94,97l3.22,389.39-4.36.03Z"/><polygon class="cls-2" points="146.3 1460.86 146.85 1457.14 146.13 1437.34 146.3 1460.86"/><path class="cls-2" d="m146.74,1257.77c-.62-18.18-1.04-52.92-2.2-53.49l1.06,32.89c-.87,4.59-.8,26.22-.5,45.35l-.08-21.69c.13,5.6.68,2.03.8,7.62-.42,33.17.8,41.65-.14,72.32l-.1-1.74.59,24.18c-.13,7.63-.54,4.6-.7,2.16.48,21.57.98,37.91.95,67.14,1.57-22.65-1.29-64.17.29-86.71l.1,1.71c-.62-28.24.38-61.06-.07-89.73Z"/><path class="cls-2" d="m145.47,1365.36l-.04-1.89c-.05.12-.02.95.04,1.89Z"/><path class="cls-2" d="m131.2,713.4l-.53-1.06c.52,1.66,1.02,3.2.53,1.06Z"/><path class="cls-2" d="m151.97,896.53l.8,1.54c1.4,1.83.75.82-.8-1.54Z"/><path class="cls-2" d="m377.33,927.05l4.78-5c-1.42,1.05-3.02,2.87-4.78,5Z"/><path class="cls-2" d="m376.47,1249.57l.02.73c0-.23-.02-.52-.02-.73Z"/><path class="cls-2" d="m387.4,1031.99l.54-.84c.05-.93-.17-.46-.54.84Z"/><path class="cls-2" d="m381.52,1186c-.02,4.46-.03,8.66-.05,12.89.15-2.97.15-8.4.05-12.89Z"/><path class="cls-2" d="m376.3,1244.86l.17,4.71c-.06-1.7-.12-3.31-.17-4.71Z"/><path class="cls-2" d="m392.74,902.93l-4.96,3.65c.26.14,2.68-1.86,4.96-3.65Z"/><path class="cls-2" d="m382.5,1224.28c-.08,2.96-.16,5.47-.23,8.1.16-1.49.26-4.18.23-8.1Z"/><path class="cls-2" d="m146.66,1226.23c.04,4.37.08,9.25.13,15.43-.05-5.68-.09-10.42-.13-15.43Z"/><path class="cls-2" d="m282.61,880.7c.35,1.16.65,2.06.9,2.64-.8-3.35-.96-3.51-.9-2.64Z"/><path class="cls-2" d="m410.93,870.97l-1.53-.81c.45.29,1.02.65,1.85,1.17l-.32-.36Z"/><path class="cls-2" d="m365.21,777.01c.55.32,1.13.66,1.73,1.02-1.21-.8-1.57-.97-1.73-1.02Z"/><path class="cls-2" d="m319.55,805.98c-1.2-.22-1.7-.21-1.59.11-.09-.29.43-.3,1.59-.11Z"/><path class="cls-2" d="m335.67,901.59c-.93-4.76.65.2,2.2,5.07-6.4-26.2-9.67-34.61-16.03-61.92l2.92,12.84c-2.36-8.63-6.49-21.29-8.73-33.24-.84-5.98-1.29-12.44.08-16.86.89-2.33,1.43-2.44,2.53-2.29,1.43.3,3.11,1.41,4.66,2.5-1.43-.84-2.63-1.33-3.75-1.71,6.19,2.65,15.82,10.43,23.37,16.1,7.79,6.01,14.53,11.38,17.63,13.37-5.42-4.57.61-.27-7.94-7.18l35.38,25.97,1.96,2.89c6.33,4.43,12.37,9.12,19.44,13.02-2.27-1.85,3.96,2.97,13.01,5.47,4.39,1.36,10.51.74,13.85-2.29,3.23-2.93,3.83-5.74,3.72-5.92,2.66-6.67,2.14-5.33,1.32-1.44-.59,3.99-6.03,9.99-9.44,10.51,4.17-1.3,6.67-4.07,7.93-6.26,1.39-2.22,2.13-4.17,2.62-6.03.7-1.69.69-4.04.41-6.77-.33-2.6-1.64-4.77-3.03-7.79-1.92-4.09-4.03-8.1-6.5-11.75-7.28-9.06-15.22-17.29-23.65-24.96,1.29,1.14-.17-.4,1.07.69-11.71-10.28-29.15-26.98-46.43-37.05.87.52.66.32.94.43-9.13-5.89-31.98-20.1-41.74-23.13-17.32-5.08-7.38-1.05-8.2-1.14-24.32-6.13-35.93-3.18-40.26,4.49-3.75,7.45-3.48,14.39-2.73,35.55.06,12.74-.84,5.29-1.66-1.39-.47-6.73-1.17-12.64-1.09,3.82.62,4.4,3.05,26.77,6.81,51.82,2.59,23.05,8.46,61.4,11.47,83.65l.41-2.41,4.36,22.9,4.46-.89-2.09-9.02,2.54,8.92-5.37,1.07-2.2-9.01c.41,1.93,1.04,4.8,1.96,9.05l5.87-1.17c-1.6-6.25-3.94-15.4-5.75-22.47-7.86-32.88-2.33-19.11-9.1-44.49-.1-.89-.19-1.72-.27-2.47-2.4-8.12-6.88-29.86-12.52-54.76l2.9,8.46,3.29,16.24c-.9-8.93-5.97-26.74-9.33-42.51-3.92-16.39-2.97-8.02-5.18-16.76-1.25-5.97-3.48-14.78-4.21-19.59-2.83-14.55.87-1.81,2.29,2.65-3.76-12.29-4.57-16.64-11.04-44.48.17-1.59.83.39,1.73,4.08-1.41-5.86-2.73-10.92-3.84-13.86l-1.47-9.62c-6.15-31.95-8.46-31.09-16.88-69.1,1.59,4.97-.41-3.21-4.07-13.81-3.54-10.65-9.64-23.38-13.5-28.31,8.33,11.33-2.79-6.45,2.76.14-4.44-6.89-11.56-10.41-16.11-8.67-3.82,1.13-4.99,2.31-6.02,3.35-1.54,2.07-4.75,3.36-7.86,16.26.41-3.54.89-7.22,2.63-10.81-3.2,6.19-3.47,9.89-3.79,12.05-.26,2.19-.31,2.98-.28,3.79.2,1.59-.62,3.36.43,15.96-.91-6.94.5,11.24-1-3.73,3.17,32.9,4.66,24.09,9.83,51.75l1.7,2c2.07,9.26,2.27,12.92,2.57,15.6-.79-3.86-2.02-9.85-2.05-9.28,1.19,11.06,4.22,17.65,5.74,30.42-.22-3.18-.37-6.82,1.97,4.71-1.47-3.55,2.78,17.82,2.61,18.74-.9-7.42,5.02,24.69,6.12,26.1,1.99,13.49-1.4-4.09-1.95-4.74,3.07,10.77,9.01,46.64,11.41,56.66-.03.23-.04.77-.04.77,3.34,16,7.56,36.25,13.64,65.39l-2.45-9.53c4.81,28.45,4.61,16.97,8.77,40.55-1.77-4.79,6.69,39.02,3.78,28.69.48,2.63.95,5.18,1.41,7.69l1.76-.37c-3.96-11.09-7.75-22.01-10.75-29.06-3.59-13.16,9.16,24.2,3.74,6.18l-6.67-19.19-.58-3.63c-.65-.65-6.07-17.62-6.11-16.64-.32-3.23-2.36-11.16-1.61-10.46-4.09-12.19-8.97-29.63-12.77-39.67l.02-1.01c-4.91-11.4-12.1-37.21-15.19-42.73l-1.77-7.82c-6.05-18.62-6.14-14.63-9.18-23.18-2.39-7.43-5.27-16.39-7.85-24.41,8.52,24.05-2.96-12.59-4.15-17.82-3.09-9.55-11.93-37.77-15.29-45.19,4.58,11.19,2.57,3.9,9.28,24.59-2.52-11.44-9.16-31.83-21.06-53.59l.62-.07c-4.48-7.21-9.55-13.99-16.7-13.2-6.33,1.57-8.2,5.9-9.85,8.7-2.7,6.24-2.58,10.53-2.32,17.94-.37,4.09-1.56.79-.84-9.36-2.41,11.84.3,27.03,4.18,41.83,3.85,14.81,7.8,29.96,11.1,42.6,1.56,8.09-.08,2.93-2.45-5.4,7.25,25.95,14.93,58.4,20.39,74.48-2.15-6.3,2.38,10.59,4.63,20.29.26-.06,1.05,1.69,1.32,2.86,4.61,15.83,14.17,50.99,18.54,69.77l-2.1-6.64c6.97,27.6,12.17,44.38,18.25,66.46,1.17,4.64,2.34,9.31,3.57,14.23l.2.86-.47-.8-.93-1.63-1.92-3.34c-1.32-2.32-2.67-4.73-4.11-7.27-1.9-3.6-3.93-7.42-6.12-11.57-3.86-7.61,4.54,6.11-3.4-8.32-4.57-7.37-4.05-4.4-14.69-24.41l1.47.94-8.16-13.15c3.21,7.31,15.54,29.33,6.38,14.19-9.05-18.15-9.16-15.14-20.18-37.18,2.81,4.95,6.94,11.16,9.17,14.55-23.92-45.75-35.4-62.98-59.58-109.35-6.46-11.11-15.35-23.79-27.02-30.92-2.99-1.53-6.19-2.55-9.25-2.16-2.85.58-5.85,2.25-7.13,4.42-2.14,4.92-.58,10.78.28,14.92-.54-.64-1.05-.87-1.67-2.42-.4-1.58-1.99-4.39-1.24-10.71-1.35,11.63,2.78,19.32,4.94,26.22,2.6,6.86,5.12,12.82,7.7,20.17,5.33,9.29,25.28,56.28,28.83,60.53.06.97,9.47,21.99-.58.94,12.5,27.66,14.49,37.25,19.95,50.04,3.09,7.17-2.55-8.62,4.43,7.77.57,1.61,1.07,3.01,1.64,4.63l3.01,6.15c2.41,6.67-3.73-6.82-4.39-7.28,9.34,23.1,16.93,37.5,27.84,64.94l-2.1-4.61c3.44,9.21,8.25,18.77,6.79,28.97l-.09-1.71.59,24.22-.42-.73c.16,5.25.23,7.79.44,14.72l-.51-2.51c.8,7.69,1.25,36.28,1.27,50.24l-.23,2.67,1.06,32.86c-.54,17.51-1.24-22.36-.83,12.39l-1.05-8.92c.14,25.39.14,27.48.24,45.26.52-7.62.44-19.33.91-10.66-1.18,19.42.33,31,.84,49.62-.03-9.45-.03-15.86-.64-22.3.02-10,.55-3.6.59-9.74l-.6-14.18.71-4.03-.59-24.29c.84,1.51.09-22.31.98-12.83-.37-16.96.23-26.67-.63-42.12.5-11.48.62,18.14.7,5.94-.14-17.07-.27-34.12-.41-51.25l-.11-25.89-.04-13.01v-3.29c-.08-2.07-.71-2.67-.96-3.85-.68-2.16-1.4-4.27-2.2-6.29-12.52-32.67-26.39-64.94-40.07-97.52l3.05,6.16c-3.24-6.69-6.76-13.97-9.18-18.98-4.09-11.29-21.68-54.11-29.36-68.53-.84-2.1.74,1.06,1.51,2.58-4.58-10.86-11.92-25.72-16.62-42.38-1.12-4.15-2.19-8.44-2.6-12.62-.35-4.22-.28-8.32,2.13-9.37,5.33-4.66,13.26.29,18.8,5.61,11.98,7.45,26.15,41.43,34.02,51.53l-3.65-5.89c-5.03-10.24,8.89,13.64,11.53,17.53,3.48,8.81-.48,1,3.94,11.35l-6.01-11.84.56,3.04c22.58,36.06,36.98,69.95,51.26,92.28-.86-1.37-.8-.93-1.71-2.4,3.98,7.84,7.72,14.32,11.28,20.25,1.8,2.97,3.67,6.07,5.46,9.03,2.76,4.76,5.36,9.24,7.67,13.23.67,1.73-.72-.4-3.23-4.6-2.4-4.03-5.11-8.58-7.69-12.93,4.98,9.14,10.43,19.15,16.39,30.09,1.26,0,2.59,0,3.99.2.99-.89,1.75-2.35,2.51-3.83-4.05-15.4-8.16-31.03-12.05-45.85-2.64-10.59-5.11-20.48-7.48-29.98-3.63-11.48.29,4.62-3.32-7.37-2.45-10.24-3.81-17.61-.25-5.13-6.18-28.85-25.05-94.06-35.24-138.05-6.64-22.82-3.24-8.37-12.8-43.53,2.58,8.15-.62-8.78,4.86,12.25l1.14,2.35c-4.12-17.59-11.13-37.9-10.56-55.9-.08-8.71,3.88-17.01,8.67-18.65,3.84-1.4,9.02,5.37,11.47,8.75-.37,1.46,3.33,5.35,8.05,18.03,2.24,5.01-.04-.52-.85-2.58,6.02,11.72,7.26,18.51,10.2,27.54l-1.2-3.15,8.5,24.55c1.18,4.18,2.96,10.45,2.93,11.43l.65-.4c4.24,13.33,1.16,6.76,6.62,23.3l-.59-3.69c3.02,10.63,9.1,27.21,9.04,29.68,0,.5-.61-1.59-1.82-5.32,4.18,16.84,13.9,42.5,19.89,63.06l-.51-5.59c6.67,19.72,3.62,12.21,2.99,11.59,3.88,12.85,5.07,16.8,10.22,33.85,3.03,8.54,1.85,4.36,3.07,7.05l5.4,17.94-4.27-11.28c7.61,19.71,15.73,47.55,22.4,68l5.73-1.22c-1.14-7.98-2.51-14.69-3.75-19.72-1.5-10.87,2.33,9.56,1.44,3.07-4.93-33.9-14.45-75.04-18.76-103.23-7.67-45.75-18.28-98.02-28.1-148.63l-.13.97c-2.23-11.76-5.12-24.44-8.03-35.77-2.84-8.87-6.82-34.58.09-47.24-.34,1.09,1.41-1.14.05,1.56,1.49-3.05,3.79-5.44,6.74-6.42,2.46-.93,4.97.24,7.39,2.37,4.6,4.61,7.47,10.59,9.2,14.64l-2.5-4.38c7.64,14.95,13.29,34.39,16.78,52.69,3.97,18.12,7.61,34.2,9.83,42.98,2.57,11.5,1.95,11.35,2.23,14.5,4.19,19.5,7.28,32.2,11.26,48.11.68,3.92,1.35,7.81,2.34,13.48l2.38,7.24c1.66,8.18-.23,2.02.97,8.51,7.51,30.19,14.38,65.84,19.06,87.15l-.28-3.14c2.21,8.77,5.39,26.03,2.73,15.61,4.36,21.22,8.06,36.85,12.21,54.36l6.55-1.31c-3.48-17.49-7.24-36.92-11.66-65.64.02-8.22-8.11-51.94-7.29-60.67-3.2-24.39-3.46-40.05-2.67-56.68.28-.41.59-2.37.11,1.21.75-4.7,2.29-14.11,14.67-13.87,11.44-.36,25.7,2.81,36.47,7.42l1.05.97c4.21,1.12,15.54,6.96,26.31,13.86,10.85,6.78,21.01,14.64,24.82,16.97,1.98,1.86-3.95-2.56-6.78-4.54,9.47,8.7,17.91,13.5,29.88,24.93-1.08-.68,2.22,2.89-.39.64,9.55,9.66,20.62,20.52,29.17,33.72,2.08,3.25,3.96,6.88,4.51,9.97.87,2.25-1.08,7.25-2.84,9.33-3.73,5.06-13,1.77-20.28-2.36-29.72-18.97-58.46-44.1-88.95-64.6-5.18-3.14-9.92-1.13-10.29-.23-.84.72.21.11.98-.2.78-.29,1.2-.45-.54.79-1.84,1.22-3.93,5.18-3.98,11.96-.68,8.04-.69-13.76-1.23,3.99,1.44,12.54,3.3,16.75,7.11,32.3-1.08-2.76-.63-.15-3.72-11.03,1.92,9.09,10.75,38,14.57,56.12.08-.97,1.11,2.26,2.16,5.55,3.88,13.09,7.59,28.26,10.48,40.47,1.46,6.18,2.78,11.79,3.72,15.78,1.84,7.37,3.11,12.38,3.47,13.22,0,0,.88,3.17,1.56,5.61,1.06-2.46,1.64-3.87.05-.44-.21-.82-.52-2-.92-3.55.29,1.1.59,2.23.93,3.45,3.29-7.57,9.05-19.43,10.23-20.88,2.1-3.34,3.53-5.35,3.13-4.25,2.51-4.45,4.61-8.47,9.26-14.73l-2.01,3.73c2.48-3.71,5.42-7.99,8.16-11.44l-4.67,5.22c7.09-8.81,21.79-25.51,22.28-24.08l-2.72,2.7c5.11-4.86,10.42-9.49,15.94-13.79,6.25-5.39,12.69-11.77,25.29-16.92,2.38.13,12.06-4.8,13.91,4.48,2.61,8.48-2.67,20.55-6.56,28.28v-.9c-5.43,12.89-25.45,43.79-21.66,38.29-7.37,11.8-16.96,28.16-13.82,21.93-6,9.83-15.48,32.43-16.37,38.45-2.69,7.19-5.28,14.45-7.38,21.86-2.32,13.63-8.75,45.29-6.04,47.1-.14,12.68-.52,9.73-.72,18.51.93,17.67.94,35.92.96,54.29l-.16.48c.35,18.03.8,40.48,1.29,65.61l-1.16,5.42c.29,13.48,1.24,16.78,1.09,29.56-.16,2.97-.24.15-.34-3.27.35,12.56.18,29.54-.04,39.03,1.02,19.4.83,34.29,1.9,51.41-.93,15.08-.65-22.52-1.54-9.58-.33,27.57.49,55.73,1.26,86.07-.2,2.61-.42-.78-.68-2.04,0,0,3.39,61.57,4.45,50.08.85,7.61,1.39,16.24,1.84-9.67-.54-8.59-1.31-32.88-.47-37.42l-.85-1.52c-.67-34.69,1.69-3.03,1.32-44.8l-.2,8.8c-.11-7.86-.7-14.2-.5-23.03.21-2.66.38,3.01.59,6.42l-1.41-34.56c.47-1.46.74-.15,1.17,6.75-.3-31.73-1.47,6.4-1.47-32.38.31-7.02.53,2.5.86,7.62.56-17.95-.2-30.04-.8-48.58.74-.25.75,11.98,1.11-3.31-.37,3.05-1,4.98-1.17-6.79.8,5.69.33-8.95.42-20.41-.24,2.32-.59,1.44-.77-3.06,0-5.86,0-10.56-.02-18.29l-.62,14.06c-.87-19.77.12-30.94.32-45.94.14,1.24.26,3.83.33,6.84.17-15.81.64-32.09-.17-52.1l.11,1.71c-1.05-37.7-1.15,11.59-2.2-32.27.04-14.41,2.49,6.95,1.34-26.37.02,7.93-1.27,2.38-.51-7.11.63-9.66,2.8-23.57,4.84-32.84-.99,6.49-1.78,12.97-2.36,19.47,1.16-7.52,3.54-20.53,4.84-24.51l-.55.85c-1.8,1.02,6.35-23.61,11.41-36.37-4.84,16.4-4.97,17.29-4.43,20.73,3.17-12.79,7.63-27.54,20.37-48.34-3.04,5.97-5.94,12-8.53,18.03,14.63-28.49,37.13-60.52,44.79-86.78-1.48,7.26,2.7-3.26-.77,8.28,1.93-5.02,3.91-10.12,4.39-15.83.52-5.67-.34-11.84-4.91-16.84,3.04,2.7,4.52,5.65,5.61,9.12-.58-1.85-1.02-3.73-2.16-5.37-.83-1.62-1.99-3.45-3.89-4.77-3.77-2.55-7.67-2.24-10.34-1.89-5.42,1.05-8.07,2.72-6.84,2.89,3.36-1.24,2.66-1.78,9.46-2.41-.86.5-7.27.8-21.16,9.45-9.47,5.69,5.21-3.93,2.46-2.56-8.7,6.04-9.67,5.76-18.01,12.83,2.65-1.9,5.33-3.74,8.06-5.51-5.69,5.15-14.14,11.19-21.48,19.03,9.07-9.15,5.77-6.55,1.87-3.61l.59-.4c-5.73,5.39-12.42,13.38-16.3,17.18l3.66-5.73c-2.44,3.05-4.79,6.16-7.09,9.31-2.9,3.31-5.18,5.51-.65-.38-11.65,13.91-10.59,14.42-10.89,15.58-.08.64-.43,1.52-2.37,4.71-1.11,1.83-2.36,3.89-4.17,6.85-.85,1.48-1.84,3.18-2.98,5.17-.64,1.21-1.36,2.58-2.19,4.16.12-.72.41-1.86,1.02-3.24.1-.5,2.57-5.16,6.04-10.48.28-1.05-.11-.97-1.43.74-.84,1.23-1.69,2.47-2.66,3.9-.74,1.22-1.57,2.58-2.56,4.22l-.07-.15-.37.79c-2.16-8.14-4.5-17.01-6.67-25.24-3.01-11.21-5.83-21.36-7.99-28.33Z"/><path class="cls-2" d="m350.7,954.37c1.08-1.93,2.12-3.78,3.1-5.52,1.59-2.55,3.07-4.94,4.42-7.12,2.83-4.12,5.07-7.39,6.68-9.73-.82.96-5.5,6.93-9.31,13.08-1.92,3.07-3.67,6.12-4.83,8.43-.29.65-.08.52-.07.87Z"/><path class="cls-2" d="m130.13,732.22l-1.31-4.62c.45,1.6.88,3.12,1.31,4.62Z"/><path class="cls-2" d="m156.27,832.32c-.17-1.11-.59-3.05-1.12-5.33-.21.06-.04,1.38,1.12,5.33Z"/><path class="cls-2" d="m250.63,734.47l-.1-.43.1.43Z"/><path class="cls-2" d="m229.16,892.04c-3.08-8.52-4.39-11.65-4.81-12.03,1.81,5.41,3.48,9.83,4.81,12.03Z"/><path class="cls-2" d="m219.41,820.4l-.85-3.63c.59,2.84.85,3.63.85,3.63Z"/><path class="cls-2" d="m257.74,764.64c-2.35-9.99-4.78-20.29-7.11-30.17,2.01,8.31,5.15,24.48,7.11,30.17Z"/><polygon class="cls-2" points="188.41 952.15 185.75 944.08 188.24 952.16 188.41 952.15"/><path class="cls-2" d="m164.43,860.58c-.95-4.23-5.52-20.55-4.59-15.73,1.74,5.95,3.15,10.8,4.59,15.73Z"/><polygon class="cls-2" points="184.3 758.9 186.13 762.64 183.09 754.63 184.3 758.9"/><path class="cls-3" d="m835.53,683.41c-143.79,77.13-277.28,171.56-419.17,251.96-13.44-24.9-26.81-49.83-40.1-74.8,143.79-77.13,277.28-171.56,419.17-251.96,13.44,24.9,26.81,49.83,40.1,74.8Z"/><path class="cls-1" d="m468.99,875.81c-2.44,1.45-4.75,2.33-6.93,2.63-2.18.3-4.19.13-6.03-.51-1.85-.64-3.51-1.66-4.99-3.04-1.48-1.38-2.75-3.05-3.81-5-1.14-2.09-1.91-4.21-2.31-6.34-.39-2.13-.39-4.21,0-6.25.4-2.03,1.26-3.92,2.56-5.66,1.31-1.74,3.09-3.27,5.35-4.6,2.22-1.3,4.36-2.08,6.42-2.33,2.05-.25,3.98-.03,5.76.67,1.78.7,3.32,1.83,4.62,3.4-1.87,1.98-2.81,2.97-4.68,4.95-.67-.96-1.5-1.73-2.5-2.31-1-.58-2.11-.85-3.34-.8-1.23.05-2.52.46-3.87,1.26-1.28.75-2.26,1.64-2.94,2.67-.69,1.03-1.09,2.18-1.22,3.45-.13,1.26-.01,2.59.33,3.98.35,1.39.92,2.8,1.72,4.26,1.09,1.98,2.31,3.54,3.68,4.68,1.37,1.14,2.87,1.74,4.51,1.83,1.64.08,3.37-.41,5.19-1.49,1.53-.91,2.64-1.92,3.34-3.03.69-1.11,1.07-2.28,1.12-3.51.05-1.22-.16-2.49-.64-3.8,2.39-.78,3.58-1.17,5.97-1.95.58,1.57.86,3.14.85,4.72,0,1.57-.32,3.08-.93,4.52-.61,1.44-1.52,2.8-2.73,4.08-1.21,1.28-2.72,2.47-4.55,3.55Z"/><path class="cls-1" d="m498.19,858.26c-2.73,1.66-5.47,2.57-8.2,2.72-2.73.16-5.29-.48-7.65-1.91-2.37-1.43-4.41-3.71-6.14-6.84-1.76-3.2-2.61-6.23-2.53-9.08.08-2.85.87-5.43,2.39-7.74,1.51-2.31,3.58-4.25,6.21-5.83,2.7-1.62,5.41-2.53,8.12-2.72,2.71-.19,5.28.41,7.68,1.8,2.4,1.39,4.49,3.68,6.25,6.86,1.74,3.14,2.59,6.15,2.54,9-.05,2.86-.84,5.46-2.37,7.8-1.53,2.34-3.63,4.32-6.29,5.93Zm-2.28-4.65c1.64-1,2.84-2.22,3.6-3.66.76-1.44,1.05-3.07.88-4.88-.18-1.81-.81-3.71-1.92-5.71-1.14-2.06-2.45-3.64-3.93-4.73-1.48-1.09-3.05-1.67-4.72-1.74-1.67-.07-3.38.42-5.13,1.48-1.57.94-2.75,2.13-3.53,3.56-.79,1.43-1.1,3.04-.93,4.84.16,1.8.81,3.71,1.93,5.75,1.76,3.2,3.86,5.23,6.29,6.11,2.43.87,4.92.54,7.47-1.01Z"/><path class="cls-1" d="m517.34,845.65c-3.79-6.82-5.69-10.23-9.48-17.06-2.26-4.06-3.38-6.1-5.64-10.17,2.01-1.23,3.02-1.84,5.03-3.07,1.75,3.47,2.63,5.21,4.38,8.68.39-.24.59-.36.98-.6-.67-2.35-.97-4.45-.89-6.29.07-1.84.51-3.47,1.32-4.88.81-1.41,1.99-2.59,3.56-3.55,1.75-1.07,3.42-1.57,5.02-1.47,1.59.09,3.07.63,4.43,1.62,1.36.99,2.53,2.32,3.52,4,.35-.22.53-.32.88-.54-.63-2.27-.89-4.35-.78-6.22.11-1.87.61-3.54,1.51-5,.9-1.47,2.13-2.69,3.7-3.66,1.5-.93,2.97-1.45,4.42-1.58,1.45-.13,2.87.13,4.25.76,1.39.63,2.73,1.66,4.03,3.07,1.3,1.41,2.56,3.19,3.76,5.34,3.24,5.8,4.87,8.71,8.11,14.51-2.38,1.49-3.58,2.23-5.96,3.72-3.08-5.51-4.62-8.27-7.7-13.79-1.12-2.01-2.24-3.57-3.34-4.66-1.1-1.09-2.22-1.73-3.35-1.92-1.13-.18-2.29.08-3.45.81-1.31.81-2.23,1.96-2.76,3.43-.53,1.47-.69,3.15-.47,5.03.21,1.88.79,3.84,1.73,5.87,2.86,5.13,4.29,7.69,7.15,12.82-2.34,1.45-3.51,2.18-5.85,3.63-3-5.38-4.5-8.07-7.5-13.46-1.16-2.09-2.31-3.71-3.44-4.86-1.13-1.15-2.27-1.84-3.42-2.06-1.15-.23-2.31.02-3.48.74-1.39.85-2.33,2.03-2.84,3.53-.51,1.5-.63,3.2-.36,5.09.27,1.89.86,3.84,1.78,5.85,2.83,5.08,4.24,7.62,7.06,12.7-2.36,1.46-3.54,2.18-5.91,3.63Z"/><path class="cls-1" d="m551.43,781.96c-1.28.8-2.38,1.14-3.32,1.05-.94-.09-1.69-.64-2.25-1.65-.54-.97-.63-1.92-.27-2.85s1.19-1.79,2.46-2.58c1.31-.82,2.44-1.17,3.39-1.06.95.11,1.69.65,2.23,1.62.56,1,.66,1.96.28,2.88-.38.91-1.22,1.78-2.53,2.6Zm14.69,33.39c-5.04-9.01-10.08-18.02-15.11-27.03,2.36-1.47,3.54-2.21,5.91-3.68,5.04,9.01,10.07,18.01,15.11,27.01-2.36,1.48-3.54,2.22-5.91,3.7Z"/><path class="cls-1" d="m579.19,807.17c-3.72-6.64-5.58-9.96-9.3-16.61-2.32-4.15-3.49-6.23-5.81-10.39,2.06-1.29,3.08-1.93,5.14-3.22,1.75,3.45,2.63,5.17,4.38,8.62.37-.23.56-.35.93-.58-.65-2.4-.92-4.53-.81-6.4.11-1.87.65-3.55,1.61-5.04.96-1.49,2.34-2.8,4.12-3.92,3.17-1.99,6.19-2.44,9.05-1.33,2.86,1.1,5.52,3.85,7.98,8.24,3.28,5.85,4.92,8.78,8.2,14.62-2.41,1.51-3.61,2.27-6.02,3.78-3.15-5.62-4.73-8.43-7.88-14.05-1.69-3.01-3.39-4.92-5.13-5.72-1.73-.81-3.55-.61-5.44.58-1.64,1.03-2.76,2.4-3.36,4.1-.6,1.71-.76,3.55-.49,5.53.27,1.98.89,3.93,1.87,5.84,2.74,4.9,4.12,7.35,6.86,12.25-2.36,1.48-3.54,2.23-5.91,3.71Z"/><path class="cls-1" d="m627.34,789.38c-3.06,1.92-5.7,3.27-7.9,4.05-2.2.78-4.01,1-5.43.68-1.41-.33-2.49-1.15-3.23-2.46-.89-1.59-.97-3.31-.23-5.15.74-1.84,2.36-3.74,4.87-5.69-.23-.41-.35-.62-.58-1.04-1.95,1.27-3.55,2.01-4.79,2.21-1.24.2-2.13-.17-2.65-1.1-.54-.97-.5-2.1.12-3.41.62-1.3,1.92-2.93,3.89-4.87-.22-.39-.33-.59-.55-.99-2.26,1.33-4.34,1.75-6.25,1.26-1.9-.49-3.39-1.7-4.48-3.64-.99-1.76-1.35-3.63-1.1-5.59.26-1.96,1.15-3.93,2.69-5.9,1.53-1.97,3.69-3.83,6.46-5.57,5.49-3.45,8.24-5.18,13.73-8.63,1.02,1.83,1.53,2.74,2.56,4.57-3.8,1.71-5.7,2.57-9.5,4.29.23.42.35.62.58,1.04,2.4-.99,4.41-1.37,6.03-1.12,1.62.25,2.87,1.16,3.76,2.76.79,1.42,1.04,2.97.73,4.66-.31,1.69-1.19,3.4-2.64,5.13-1.45,1.73-3.47,3.4-6.05,5.03-.47.3-1,.6-1.56.91-.57.31-1.93.67-2.55,1.25-.61.57-1.01,2-1.29,2.78-.28.78-.32,1.35-.12,1.69.19.35.58.48,1.15.4.57-.08,1.22-.3,1.96-.67.73-.37,1.41-.74,2.03-1.13,2.8-1.76,4.2-2.64,7-4.4.73-.46,1.69-.98,2.89-1.57,1.2-.59,2.49-1.01,3.87-1.27,1.38-.26,2.72-.15,4.02.32,1.3.47,2.42,1.55,3.37,3.25,1.08,1.94,1.38,3.88.89,5.82-.49,1.94-1.72,3.92-3.7,5.93-1.98,2.01-4.64,4.07-8,6.18Zm-11.76-22.84c2.11-1.33,3.46-2.77,4.04-4.33.58-1.56.47-3.06-.35-4.51-.87-1.56-2.13-2.48-3.78-2.78-1.65-.3-3.54.23-5.7,1.58-2.11,1.33-3.46,2.83-4.03,4.49-.57,1.67-.44,3.25.4,4.73.56,1,1.31,1.72,2.23,2.14.93.42,1.99.54,3.19.34,1.2-.19,2.53-.75,3.99-1.67Zm9.56,17.98c2.33-1.47,4.14-2.77,5.41-3.93,1.28-1.15,2.08-2.23,2.41-3.23.33-1,.24-1.95-.27-2.85-.46-.83-1.05-1.34-1.75-1.53-.7-.19-1.42-.18-2.17.03-.74.21-1.46.5-2.13.88-.67.38-1.25.72-1.72,1.01-2.6,1.64-3.9,2.45-6.51,4.09-1.76,1.53-2.81,2.9-3.16,4.13-.35,1.23-.27,2.29.23,3.19.48.86,1.19,1.32,2.1,1.38.92.05,2.01-.21,3.28-.8,1.27-.59,2.69-1.38,4.26-2.36Z"/><path class="cls-1" d="m665.97,753.65c-1.97,1.22-3.83,2.12-5.57,2.7-1.74.57-3.35.84-4.83.8s-2.78-.38-3.93-1.02c-1.14-.64-2.1-1.51-2.87-2.62,1.59-1.81,2.38-2.71,3.97-4.52.56,1,1.39,1.7,2.5,2.09,1.1.39,2.39.42,3.85.09,1.46-.33,3.05-1.03,4.77-2.09,2-1.25,3.38-2.52,4.12-3.83.75-1.31.81-2.51.19-3.62-.46-.83-1.13-1.31-2.01-1.42-.87-.11-1.95.02-3.24.4-1.29.38-2.76.92-4.4,1.55-1.49.57-3.02,1.08-4.56,1.55-1.53.47-3.02.76-4.46.86-1.44.11-2.77-.11-3.97-.64-1.21-.53-2.22-1.52-3.03-2.98-.93-1.66-1.27-3.38-1.03-5.14.24-1.76,1.04-3.53,2.39-5.29,1.35-1.76,3.23-3.39,5.64-4.9,2.33-1.46,4.53-2.39,6.59-2.79,2.06-.4,3.94-.33,5.61.22s3.08,1.55,4.19,3c-1.7,1.81-2.55,2.72-4.25,4.54-.67-1.03-1.51-1.72-2.52-2.07-1.01-.35-2.13-.39-3.35-.12-1.22.27-2.53.84-3.91,1.71-1.82,1.14-3.08,2.35-3.77,3.62-.69,1.27-.73,2.45-.13,3.52.46.83,1.16,1.3,2.08,1.4.92.1,2.02-.04,3.29-.45,1.28-.4,2.71-.9,4.28-1.52,1.61-.63,3.19-1.19,4.73-1.69,1.54-.49,3.01-.79,4.41-.89,1.39-.1,2.68.14,3.85.69s2.16,1.57,2.98,3.03c.99,1.77,1.32,3.59,1.01,5.44-.31,1.86-1.21,3.66-2.68,5.42-1.47,1.76-3.45,3.41-5.93,4.95Z"/><path class="cls-1" d="m695.94,735.12c-2.73,1.68-5.47,2.61-8.2,2.8-2.73.19-5.29-.41-7.65-1.8-2.37-1.39-4.41-3.63-6.14-6.72-1.76-3.16-2.61-6.17-2.53-9.02s.87-5.45,2.39-7.79c1.51-2.34,3.58-4.33,6.21-5.95,2.7-1.67,5.41-2.62,8.12-2.84,2.71-.22,5.28.35,7.68,1.73,2.4,1.38,4.49,3.66,6.25,6.83,1.74,3.14,2.59,6.14,2.54,9-.05,2.86-.84,5.46-2.37,7.8-1.53,2.34-3.63,4.33-6.29,5.96Zm-2.28-4.63c1.64-1.01,2.84-2.24,3.6-3.68.76-1.45,1.05-3.08.88-4.89-.17-1.81-.82-3.71-1.92-5.7-1.14-2.06-2.45-3.62-3.93-4.7-1.48-1.08-3.05-1.64-4.72-1.69s-3.38.47-5.13,1.55c-1.57.97-2.75,2.18-3.53,3.62-.79,1.45-1.1,3.07-.93,4.86.17,1.79.81,3.7,1.93,5.71,1.76,3.16,3.86,5.16,6.29,6,2.43.84,4.92.48,7.47-1.09Z"/><path class="cls-1" d="m727.87,715.7c-2.73,1.64-5.47,2.55-8.2,2.7-2.73.16-5.29-.47-7.65-1.88-2.37-1.41-4.41-3.67-6.14-6.78-1.76-3.18-2.6-6.19-2.53-9.05.08-2.85.87-5.44,2.39-7.77,1.51-2.33,3.58-4.29,6.21-5.89,2.7-1.64,5.41-2.56,8.12-2.75,2.71-.19,5.28.42,7.68,1.82,2.4,1.41,4.49,3.71,6.25,6.91,1.74,3.16,2.59,6.18,2.54,9.04-.05,2.86-.84,5.45-2.37,7.77-1.53,2.32-3.63,4.28-6.29,5.88Zm-2.28-4.66c1.64-.99,2.84-2.2,3.6-3.64.76-1.44,1.05-3.06.88-4.88-.17-1.81-.81-3.72-1.92-5.72-1.14-2.07-2.45-3.65-3.93-4.75-1.48-1.09-3.05-1.68-4.72-1.74-1.67-.07-3.38.43-5.13,1.49-1.57.95-2.75,2.15-3.53,3.59-.79,1.44-1.1,3.05-.93,4.85.16,1.79.81,3.7,1.93,5.73,1.76,3.18,3.86,5.21,6.29,6.07,2.43.87,4.92.53,7.47-1.01Z"/><path class="cls-1" d="m747.02,703.37c-3.72-6.77-5.58-10.16-9.3-16.91-2.32-4.22-3.49-6.33-5.81-10.55,2.06-1.23,3.08-1.85,5.14-3.08,1.75,3.5,2.63,5.25,4.38,8.75.37-.22.56-.33.93-.55-.65-2.42-.92-4.56-.81-6.42.11-1.87.65-3.53,1.61-4.99.96-1.46,2.34-2.72,4.12-3.78,3.17-1.88,6.19-2.21,9.05-.99,2.86,1.22,5.52,4.08,7.98,8.59,3.28,6,4.92,9.01,8.2,15.02-2.41,1.39-3.61,2.09-6.02,3.49-3.15-5.77-4.73-8.65-7.88-14.41-1.69-3.08-3.39-5.06-5.13-5.93-1.73-.87-3.55-.75-5.44.37-1.64.97-2.76,2.3-3.36,3.99-.6,1.69-.76,3.52-.49,5.51.27,1.99.89,3.96,1.87,5.91,2.74,4.99,4.12,7.49,6.86,12.5-2.36,1.39-3.54,2.09-5.91,3.49Z"/><path class="cls-4" d="m314.15,830.06s-8.13-37.65,10.17-25.78c18.3,11.87,72.68,55.32,84.38,62.21,10.24,6.03,26.86,14.67,31.1-5.19,4.24-19.86-81.13-96.86-124.81-107.34-43.67-10.48-41.76,6.09-42.61,28.16"/><path class="cls-2" d="m427.66,875.83c-6.38,0-13.59-3.64-20.09-7.46-5.91-3.49-22.28-15.95-39.6-29.15-17.56-13.36-35.72-27.19-44.85-33.12-1.63-1.05-4.6-2.68-6.18-1.59-3.64,2.51-2.57,16.18-.65,25.08l-4.27.93c-.87-4.06-4.88-24.56,2.44-29.61,2.77-1.93,6.5-1.43,11.04,1.52,9.27,6.02,27.49,19.89,45.12,33.31,17.21,13.12,33.48,25.5,39.18,28.86,7.51,4.41,15.9,8.58,21.62,6.12,3.01-1.32,5.12-4.65,6.23-9.89,3.91-18.28-81.04-94.66-123.17-104.77-17.35-4.15-28.41-4.18-33.84-.08-5.36,4.09-5.63,12.32-5.96,22.75l-.12,3.45-4.36-.18.12-3.42c.35-11.12.66-20.72,7.67-26.08,6.7-5.09,18.25-5.31,37.51-.69,42.64,10.23,131.25,87.27,126.42,109.91-1.43,6.7-4.36,11.06-8.74,12.99-1.73.75-3.6,1.1-5.52,1.1Z"/><polygon class="cls-2" points="274.28 782.18 274.84 781.81 274.21 779.66 274.28 782.18"/><path class="cls-2" d="m277.11,761.52c-.02-1.82,1.56-4.69.85-5.53-.41,1.15-.88,2.17-1.04,3.3-.98-.03-1.93,2.07-2.11,4.08l.59-2.16c-.05.59.58.43.53,1-1.39,3.09-.23,4.19-1.55,7.22l-.08-.19.36,2.57c-.18.79-.57.45-.71.18.31,2.3.75,4.04.59,7.16,1.66-2.36-1-6.89.8-9.11l.08.18c-.35-3,1.2-6.08,1.69-8.7Z"/><path class="cls-2" d="m273.95,771.99l-.03-.2s-.02.1.03.2Z"/><path class="cls-2" d="m372.86,790.16l.25-.12c-.2-.04-.39-.08-.25.12Z"/><path class="cls-2" d="m343.1,766.35l.14.12c.38-.18.23-.17-.14-.12Z"/><path class="cls-2" d="m355.92,823.48l-.38-.74c-.05.39.11.6.38.74Z"/><path class="cls-2" d="m309.82,806.34v.09s0-.09,0-.09Z"/><path class="cls-2" d="m330.7,810.58l-.1.32c.18-.09.2-.2.1-.32Z"/><path class="cls-2" d="m317.66,804.33c-.31-.15-.5.01-.69.15.24.08.41-.16.69-.15Z"/><path class="cls-2" d="m309.9,805.69c-.04.27-.06.48-.08.65.05-.24.09-.49.08-.65Z"/><path class="cls-2" d="m350.36,825.84v1.06c.17-.23.08-.65,0-1.06Z"/><path class="cls-2" d="m316.58,806.1c-.23,0-.41.15-.52.39.2-.04.35-.25.52-.39Z"/><path class="cls-2" d="m278.36,758.96c-.26.29-.42.72-.56,1.26.27-.44.38-.9.56-1.26Z"/><path class="cls-2" d="m429.99,876.36c-.14.11-.26.24-.32.38.46-.15.46-.26.32-.38Z"/><path class="cls-2" d="m380.81,849.75l-.16-.09s.06.14.1.24l.06-.16Z"/><path class="cls-2" d="m393.7,859.24l-.28.02c.17.03.28-.02.28-.02Z"/><path class="cls-2" d="m370.65,843.14c-.2-.06-.41-.11-.62-.11l.62.11Z"/><path class="cls-2" d="m361.99,835.45c.23.55-.38.44-.99.33,2.05,2.07,3.45,1.81,5.39,4.21l-.87-1.18c1.92.69,4.84,2.75,5.74,4.44l-.6-.11c1.87.59,3.43,3.33,4.41,3.36-.38-.75.38-.44-.35-1.43l4.15,2.29-.41,1.12,2.2,1.19c-.21-.73,2.42,2.28,3.11,1.46.88,1.17-.98.33-1.64.38,1.3.58,1.13,1.05,2.55,1.31l.5,1.62,3.33,1.61c-.2-.03-.07.15-.26.12,1.83.32,3.08,2.92,5.64,3.01-.12-.02-.19.07-.19.07,1.4.06,3.36,2.21,4.12,2.95,1.64.94,1.19-.32,1.5-.61,4.25,3.37,2.91,2.32,7.34,3.9,1.69,2.55-3.9-.11-1.34,2.55.75-.22,3.07.7,5.59,1.79,1.98,1.62,5.67,3.79,7.87,5.45l.02-.85c1.24.24,2.44.55,3.72.66-.79.22-1.61.42-2.41.55.92-.05,2.66-.14,3.99-.21,3.98-.21,2.23,2.1,5.54.72l.35.2c.95-.7,4.04-1.2,6.45-3.64-.02.55-.11,1.07-.28,1.57l-2.1,1.06c1.67.32,3.24-2.26,4.54-3.86.92-2.02-.38-1.6-.05-2.67.5-.57.56-1.67,1.08-2.06.97-1.45,1.21.28,1.37,1.03-.32-1.87.05-2.28.44-5.56.53-.05.68.23.67.68.08-.69,0-1.36-.51-1.86l.56-1.2c.77-4.68-2.45-3.65-3.55-7.74,1.08.73-1.69-3.24-1.89-4.6.9,1.19.96-1.38,1.96-.92-1.47-3.22-1.77-.57-3.39-2.83l1.67.26c-1.9-2-.93-.18-2.83-2.17.74.39-.43-1.17.87-.11-2.13-3.08-1.17-1.7-3.27-4.72l-1.14.56c-.72-.74-.51-1.41-.53-1.77.3.3.65.89.74.73.14-1.67-1.72-1.14-1.84-2.84-.08.51-.26,1.16-1.14.23.86-.17-.71-1.94-.53-2.22.12.96-1.96-1.93-2.69-1.52-.52-1.5.75-.05,1.12-.25-1.47-.32-3.48-3.79-4.69-4.2.04-.07.08-.18.08-.18-1.5-.73-3.37-2.5-6.09-4.14l1.24.27c-1.9-2.48-2.38-.31-4.19-2.12,1.11-.35-3.09-2.9-1.47-2.91-1.5-.65-2.85-1.6-4.18-1.66-.65-1.43,2.95.92,1.71-.69l-1.93-1.13.11-.67c-.34.23-1.76-1.05-1.92-.74.2-.71-.13-1.64.29-1.94-1.16-.78-2.17-2.56-3.42-2.9l.14-.31c-1.81.02-3.28-2.64-4.62-2.13l-.17-1.09c-1.67-1.29-2.23-.03-3.16-.43-.67-.5-1.54-1.06-2.14-1.71,2.62,1.14-.41-1.64-.54-2.36-.81-.71-3.3-2.68-4.36-2.75,1.41.33,1.13-.6,2.94.87-.17-1.75-2.86-2.11-4.82-3.83l.38-.44c-3.17-2.01-3.87-1.3-5.76-1.5.1-.84.5-.76,1.78-.67-1.7-1.85-5-3.99-7.25-5.65-.41-.93.24-.82,1.12-.45-2.66-1.27-5.16-3.93-7.37-3.97.87,0-.74-.96-1.47-1.79-.15.21-.51.37-.59.26-1.74-.61-5.26-2.35-6.72-3.89l.83.11c-3.84-2.86-6.74-2.19-10.71-5.62-.65-.72,1.37-.4-.29-1.36-1.04-.08-1.27.91-3.2-.57l.56-.64-1.84-.13c.38,1.04,2.8,2.22.8,1.91-1.47-1.76-1.95-.37-3.82-2.36.57.21,1.59.01,2.14-.06-4.43-3.4-7.13-3-11.71-6.3-2.83-.5-6.13-1.8-8.1-1.99.44-.72.68-1.42,2.11-1.51-2.14-1.13-3.91.53-5.07-1.19-1.44.75-6.45-1.33-7.41.26-.02-.33-2.48-.55.14-.9-3.26-.16-3.87-2.26-5.33-2.57-.83-.11.74,1.17-1.13.86-.21-.11-.23-.27-.46-.38l-.78.26c-.68-.48.95-.65,1.1-1.05-2.6-.69-4.49.1-7.6-.03l.56-.23-3.17-.32.19-.08c-.87.11-1.73.22-2.58.45l.08-.42c-.59.12-.73.38-1.55.44l.26-.52c-.84.72-3.72,1.31-5.09,1.62l-.31-.19c-1.08.41-1.96,1.19-2.84,1.78-1.8,0,1.68-1.81-1.42-.39.11-.47.29-.84.46-1.27-2.12,1.39-2.81,1.03-3.91,2.42.85-.17,1.82-.69,1.35.08-2.19.21-2.11,2.17-2.52,3.75.49-.67.77-1.13.71-1.99.71-.58.64.18,1.08-.14l.58-1.3.71.39,1.66-1.54c.14.72,2.04-.53,1.48.53,1.36-.83,2.34-.49,3.72-1.46,1.17.35-1.64.84-.47.77,6.39-1.64,13.93-.42,21.05,1.28l-.78.22c.92-.19,1.67-.34,2.35-.48,1.17.84,5.57,2.82,7.46,2.23.2.14-.2.2-.39.24,2.38.52,6.2,2.7,9.38,4.12,1.88-.58,4.47,2.73,6.39,1.83h-.81c-.84-1.02,2.07-.33,2.72-.5.35,1.51-.35.84.2,2.35l-1.05-1.02-.17,1.01c5.1-.11,6.8,4.79,10.03,4.73-.19,0-.23.15-.44.14,1.3,1.43,3.05,1.05,4.39,1.47-.12.5-1.11.26-1.91.21,2.61,1.94,7.96,3.76,10.49,6.49,1.42.17.08-1,1.47-.67.82.77,1.18,1.65-.14,1.16,1.94,2.65,8.91,5.25,12.1,9,2.45.93,1.42-.33,4.77,1.67-.99-.19-.25,1.83-2.09.45l-.53.24c2.96,2.45,6.84,5.76,9.39,5.93-.57.9.42.59,1.2,1.93.53.28.06-.16-.08-.36,1.67.19,1.6,1.4,2.47,1.93l-.39-.09,2.53,1.28c.26.4.65,1,.52,1.32l.47-.58c1.14.96-.07,1.18,1.47,2.23l.07-.67c.67,1.02,2.6,1.64,2.26,2.41-.07.15-.2-.05-.53-.3.68,2,3.78,2.87,5.12,4.78l.38-1.28c1.89,1.21.84,1.09.49,1.35,1.1.99,1.08,1.49,2.42,2.9.92.42.68.01,1.14-.03l1.27,1.55-1.39-.38c3.47.77,5.35,5.46,7.95,5.72.59,1.06-1.26-.21-.9.42,2.08,3.02,6.49,4.95,7.91,7.76,2.8,4.08,6.97,7.86,9.94,12.38l.2-.27,2.04,3.21c1.15.43,2.56,2.63,4.01,3.56-.28.03-.44.53-.77.32.88,1.3,2.07,2.61,2.17,3.63l-.51-.32c.94,1.54,1.65,3.35,2.23,4.94.9,1.68,1.11,2.85,1.35,3.45.14.88-.42.81-.77.96-.12,1.43-.28,3.01-.33,4.46-.29.3-.56.62-.99.88l.39.95c-.49.53-.65-.19-1.11.14-.6,2.81-3.51,3.44-5.08,3.52l.29.35c-.65.53-2.2-.18-1.29-.52-3.33-.56-5.87.52-11.21-2.16-.11-1.59-5-2.13-5-4.02-2.41-.96-3.29-2.31-5.33-2.6.05-.17-.1-.35.26-.14-.5-1.05-3.55-2.66-5.91-3.88l.16-.47c-1.38.29-4.85-2.66-6.24-2.38-.1-.36.67-.06,1.08.01-.52-1.61-2.21-1.05-3.5-2.29.26-.12.02-.68.43-.61-4.03-4.42-12-8.06-17.65-13.34-1.68-1.33-.05,1.35-2.23-.41-.32-.91,1.74-.02.46-1.28-1.42-.26-1.71-.65-3.04-1.74.46-.09.38-.44,1.48.1-.53-.94-3.86-1.89-4.91-3.78-.12.32-.52.24-.93.17-2.87-1.03-4.77-4.77-5.29-4.53,0,0-.9-.5-.26.12-.84-.66-1.97-1.72-1.45-1.96-.61-.11-1.27-.06-1.98-.52l.73-.21c-.47-.19-1.14-.22-1.57-.45l.38.75c-.67-1.14-3.32-1.62-2.57-2.5l.35.23-1.51-1.8c-1.02-.18-2.04-.36-3.17-1.41.24-1.32-2.98-2.57-4.48-3.84l.32-.28c-1.59-.45-4.59-2.99-4.14-2.4-1.2-.88-2.67-2.31-1.84-2.17-1.13-.52-3.2-2.05-4.13-1.85l-1.41-2.25c-2.06.37-3.71-3.28-4.75-2.05-1.01-.97-.55-1.09-1.2-1.85-1.93-.39-3.9-1.73-6.18-2.69l-.02-.18c-2.14-1.19-7.41-.19-9.36,3.47l-1.5.09c-.81,1.97.04,2.65-.67,4.16-.25.32-.25-.04-.23-.47-.08,1.59-.73,3.59-1.04,4.68.68,2.34.43,3.99,1.44,5.86-.97,1.73-.59-2.49-1.52-1.01-.44,3.16.46,6.27,1.46,9.49-.18.32-.42-.02-.69-.12,0,0,3.99,6.2,4.91,4.67.96.65,1.56,1.39,1.68-1.37-.64-.78-1.62-3.23-.8-3.83l-.85-.03c-.86-3.57,1.59-.56,1.11-4.85l-.19.93c-.12-.8-.72-1.41-.53-2.35.21-.29.37.29.59.62l-1.34-3.5c.48-.16.73-.03,1.14.66-.11-3.23-1.53.7-1.23-3.3.37-.71.5.27.79.79.75-1.78.11-3,0-4.83.74.12.45,1.2,1.17-.09-.44.19-1.11.27-.98-.86.59.66.58-.71,1.11-1.5-.3.08-.61-.11-.59-.56.11-.48.62-.56.87-1.09l-1.23.51c.41-1.95,2.04-1.78,2.91-1.33-.07.15-.2.27-.36.31.9.15,1.81.83,3.67,1.17h-.18c3.5,1.09-.47-1.78,3.75-.06,1.18.98-1.95,1.62,1.45,2.86-1.02-1.48,2.75.02,4.57.97l-2.54-.02c.65.48,2.04.97,2.32,1.34l.11-.32c.59-1.09,2.03,1.65,3.66,1.91-2.46.29-2.35-.03-3.59,1.12,1.68.09,3.5.38,5.5,2.05l-2.48-.22c2.63,2.25,7.03,3.18,9.98,4.02-1.19.3-.45,1.28-1.93,1.19l2.79,1.84-1.38.27c1.73-.04,2.49,1.45,3.14.2-.4-.07-.46.09-.96-.33.32-.29,1.29-.62,2.64.46.73.97-.87.02-.84.53,1.23.22.74.98,1.9,1.35l-.47-1.09c1.13-.15,1.55,1.12,2.69,1.49-1.29-.55-1.22.09-1.1.78v-.13c.7.46,1.92.68,2.1,1.39l-1.24.46,1.47.09c.29.39.32.9-.44.6,2.64,2.85,1.35-1.97,4.73,1.87-.32.28-.93.18-1.86-.84-.58.4-.55.92.38,1.93l-.07.11c2.06,1.59,4.73,3.68,6.55,4.13Z"/><path class="cls-2" d="m355.44,831.32c-1.1-.85-2.04-1.55-2.57-1.76.08.33,2.2,2.36,2.57,1.76Z"/><path class="cls-2" d="m374.78,784.45l.49.21-.49-.21Z"/><path class="cls-2" d="m365.61,778.15c.03.17.16.35.33.55.12-.18.11-.4-.33-.55Z"/><path class="cls-2" d="m442.1,862.96v-.05s0,.05,0,.05Z"/><path class="cls-2" d="m406.34,810.07c-.96-.4-1.44-.42-1.67-.25.51.35,1.06.5,1.67.25Z"/><path class="cls-2" d="m421.1,825.57l.4.18c-.26-.19-.4-.18-.4-.18Z"/><path class="cls-2" d="m441.51,866.65c.37-2.31.37-2.29.59-3.69-.09,1.02-.86,2.75-.59,3.69Z"/><polygon class="cls-2" points="353.7 771.61 354.93 771.75 353.74 771.45 353.7 771.61"/><path class="cls-2" d="m362.51,777.07c.31.37,2.02,1.09,1.76.56-.62-.08-1.2-.32-1.76-.56Z"/><polygon class="cls-2" points="393.51 801.77 394.25 801.61 393.24 801.36 393.51 801.77"/></svg>